<?xml version="1.0" encoding="utf-8" standalone="no"?>
<!DOCTYPE svg PUBLIC "-//W3C//DTD SVG 1.1//EN"
  "http://www.w3.org/Graphics/SVG/1.1/DTD/svg11.dtd">
<svg xmlns:xlink="http://www.w3.org/1999/xlink" width="460.8pt" height="345.6pt" viewBox="0 0 460.8 345.6" xmlns="http://www.w3.org/2000/svg" version="1.1">
 <metadata>
  <rdf:RDF xmlns:dc="http://purl.org/dc/elements/1.1/" xmlns:cc="http://creativecommons.org/ns#" xmlns:rdf="http://www.w3.org/1999/02/22-rdf-syntax-ns#">
   <cc:Work>
    <dc:type rdf:resource="http://purl.org/dc/dcmitype/StillImage"/>
    <dc:date>2025-03-24T14:06:07.757632</dc:date>
    <dc:format>image/svg+xml</dc:format>
    <dc:creator>
     <cc:Agent>
      <dc:title>Matplotlib v3.8.4, https://matplotlib.org/</dc:title>
     </cc:Agent>
    </dc:creator>
   </cc:Work>
  </rdf:RDF>
 </metadata>
 <defs>
  <style type="text/css">*{stroke-linejoin: round; stroke-linecap: butt}</style>
 </defs>
 <g id="figure_1">
  <g id="patch_1">
   <path d="M 0 345.6 
L 460.8 345.6 
L 460.8 0 
L 0 0 
z
" style="fill: #ffffff"/>
  </g>
  <g id="axes_1">
   <g id="patch_2">
    <path d="M 57.6 307.584 
L 414.72 307.584 
L 414.72 41.472 
L 57.6 41.472 
z
" style="fill: #ffffff"/>
   </g>
   <g id="matplotlib.axis_1">
    <g id="xtick_1">
     <g id="line2d_1">
      <defs>
       <path id="m02077eda8e" d="M 0 0 
L 0 3.5 
" style="stroke: #000000; stroke-width: 0.8"/>
      </defs>
      <g>
       <use xlink:href="#m02077eda8e" x="73.832727" y="307.584" style="stroke: #000000; stroke-width: 0.8"/>
      </g>
     </g>
     <g id="text_1">
      <!-- 0 -->
      <g transform="translate(70.651477 322.182437) scale(0.1 -0.1)">
       <defs>
        <path id="DejaVuSans-30" d="M 2034 4250 
Q 1547 4250 1301 3770 
Q 1056 3291 1056 2328 
Q 1056 1369 1301 889 
Q 1547 409 2034 409 
Q 2525 409 2770 889 
Q 3016 1369 3016 2328 
Q 3016 3291 2770 3770 
Q 2525 4250 2034 4250 
z
M 2034 4750 
Q 2819 4750 3233 4129 
Q 3647 3509 3647 2328 
Q 3647 1150 3233 529 
Q 2819 -91 2034 -91 
Q 1250 -91 836 529 
Q 422 1150 422 2328 
Q 422 3509 836 4129 
Q 1250 4750 2034 4750 
z
" transform="scale(0.015625)"/>
       </defs>
       <use xlink:href="#DejaVuSans-30"/>
      </g>
     </g>
    </g>
    <g id="xtick_2">
     <g id="line2d_2">
      <g>
       <use xlink:href="#m02077eda8e" x="117.148877" y="307.584" style="stroke: #000000; stroke-width: 0.8"/>
      </g>
     </g>
     <g id="text_2">
      <!-- 200 -->
      <g transform="translate(107.605127 322.182437) scale(0.1 -0.1)">
       <defs>
        <path id="DejaVuSans-32" d="M 1228 531 
L 3431 531 
L 3431 0 
L 469 0 
L 469 531 
Q 828 903 1448 1529 
Q 2069 2156 2228 2338 
Q 2531 2678 2651 2914 
Q 2772 3150 2772 3378 
Q 2772 3750 2511 3984 
Q 2250 4219 1831 4219 
Q 1534 4219 1204 4116 
Q 875 4013 500 3803 
L 500 4441 
Q 881 4594 1212 4672 
Q 1544 4750 1819 4750 
Q 2544 4750 2975 4387 
Q 3406 4025 3406 3419 
Q 3406 3131 3298 2873 
Q 3191 2616 2906 2266 
Q 2828 2175 2409 1742 
Q 1991 1309 1228 531 
z
" transform="scale(0.015625)"/>
       </defs>
       <use xlink:href="#DejaVuSans-32"/>
       <use xlink:href="#DejaVuSans-30" x="63.623047"/>
       <use xlink:href="#DejaVuSans-30" x="127.246094"/>
      </g>
     </g>
    </g>
    <g id="xtick_3">
     <g id="line2d_3">
      <g>
       <use xlink:href="#m02077eda8e" x="160.465028" y="307.584" style="stroke: #000000; stroke-width: 0.8"/>
      </g>
     </g>
     <g id="text_3">
      <!-- 400 -->
      <g transform="translate(150.921278 322.182437) scale(0.1 -0.1)">
       <defs>
        <path id="DejaVuSans-34" d="M 2419 4116 
L 825 1625 
L 2419 1625 
L 2419 4116 
z
M 2253 4666 
L 3047 4666 
L 3047 1625 
L 3713 1625 
L 3713 1100 
L 3047 1100 
L 3047 0 
L 2419 0 
L 2419 1100 
L 313 1100 
L 313 1709 
L 2253 4666 
z
" transform="scale(0.015625)"/>
       </defs>
       <use xlink:href="#DejaVuSans-34"/>
       <use xlink:href="#DejaVuSans-30" x="63.623047"/>
       <use xlink:href="#DejaVuSans-30" x="127.246094"/>
      </g>
     </g>
    </g>
    <g id="xtick_4">
     <g id="line2d_4">
      <g>
       <use xlink:href="#m02077eda8e" x="203.781178" y="307.584" style="stroke: #000000; stroke-width: 0.8"/>
      </g>
     </g>
     <g id="text_4">
      <!-- 600 -->
      <g transform="translate(194.237428 322.182437) scale(0.1 -0.1)">
       <defs>
        <path id="DejaVuSans-36" d="M 2113 2584 
Q 1688 2584 1439 2293 
Q 1191 2003 1191 1497 
Q 1191 994 1439 701 
Q 1688 409 2113 409 
Q 2538 409 2786 701 
Q 3034 994 3034 1497 
Q 3034 2003 2786 2293 
Q 2538 2584 2113 2584 
z
M 3366 4563 
L 3366 3988 
Q 3128 4100 2886 4159 
Q 2644 4219 2406 4219 
Q 1781 4219 1451 3797 
Q 1122 3375 1075 2522 
Q 1259 2794 1537 2939 
Q 1816 3084 2150 3084 
Q 2853 3084 3261 2657 
Q 3669 2231 3669 1497 
Q 3669 778 3244 343 
Q 2819 -91 2113 -91 
Q 1303 -91 875 529 
Q 447 1150 447 2328 
Q 447 3434 972 4092 
Q 1497 4750 2381 4750 
Q 2619 4750 2861 4703 
Q 3103 4656 3366 4563 
z
" transform="scale(0.015625)"/>
       </defs>
       <use xlink:href="#DejaVuSans-36"/>
       <use xlink:href="#DejaVuSans-30" x="63.623047"/>
       <use xlink:href="#DejaVuSans-30" x="127.246094"/>
      </g>
     </g>
    </g>
    <g id="xtick_5">
     <g id="line2d_5">
      <g>
       <use xlink:href="#m02077eda8e" x="247.097328" y="307.584" style="stroke: #000000; stroke-width: 0.8"/>
      </g>
     </g>
     <g id="text_5">
      <!-- 800 -->
      <g transform="translate(237.553578 322.182437) scale(0.1 -0.1)">
       <defs>
        <path id="DejaVuSans-38" d="M 2034 2216 
Q 1584 2216 1326 1975 
Q 1069 1734 1069 1313 
Q 1069 891 1326 650 
Q 1584 409 2034 409 
Q 2484 409 2743 651 
Q 3003 894 3003 1313 
Q 3003 1734 2745 1975 
Q 2488 2216 2034 2216 
z
M 1403 2484 
Q 997 2584 770 2862 
Q 544 3141 544 3541 
Q 544 4100 942 4425 
Q 1341 4750 2034 4750 
Q 2731 4750 3128 4425 
Q 3525 4100 3525 3541 
Q 3525 3141 3298 2862 
Q 3072 2584 2669 2484 
Q 3125 2378 3379 2068 
Q 3634 1759 3634 1313 
Q 3634 634 3220 271 
Q 2806 -91 2034 -91 
Q 1263 -91 848 271 
Q 434 634 434 1313 
Q 434 1759 690 2068 
Q 947 2378 1403 2484 
z
M 1172 3481 
Q 1172 3119 1398 2916 
Q 1625 2713 2034 2713 
Q 2441 2713 2670 2916 
Q 2900 3119 2900 3481 
Q 2900 3844 2670 4047 
Q 2441 4250 2034 4250 
Q 1625 4250 1398 4047 
Q 1172 3844 1172 3481 
z
" transform="scale(0.015625)"/>
       </defs>
       <use xlink:href="#DejaVuSans-38"/>
       <use xlink:href="#DejaVuSans-30" x="63.623047"/>
       <use xlink:href="#DejaVuSans-30" x="127.246094"/>
      </g>
     </g>
    </g>
    <g id="xtick_6">
     <g id="line2d_6">
      <g>
       <use xlink:href="#m02077eda8e" x="290.413478" y="307.584" style="stroke: #000000; stroke-width: 0.8"/>
      </g>
     </g>
     <g id="text_6">
      <!-- 1000 -->
      <g transform="translate(277.688478 322.182437) scale(0.1 -0.1)">
       <defs>
        <path id="DejaVuSans-31" d="M 794 531 
L 1825 531 
L 1825 4091 
L 703 3866 
L 703 4441 
L 1819 4666 
L 2450 4666 
L 2450 531 
L 3481 531 
L 3481 0 
L 794 0 
L 794 531 
z
" transform="scale(0.015625)"/>
       </defs>
       <use xlink:href="#DejaVuSans-31"/>
       <use xlink:href="#DejaVuSans-30" x="63.623047"/>
       <use xlink:href="#DejaVuSans-30" x="127.246094"/>
       <use xlink:href="#DejaVuSans-30" x="190.869141"/>
      </g>
     </g>
    </g>
    <g id="xtick_7">
     <g id="line2d_7">
      <g>
       <use xlink:href="#m02077eda8e" x="333.729628" y="307.584" style="stroke: #000000; stroke-width: 0.8"/>
      </g>
     </g>
     <g id="text_7">
      <!-- 1200 -->
      <g transform="translate(321.004628 322.182437) scale(0.1 -0.1)">
       <use xlink:href="#DejaVuSans-31"/>
       <use xlink:href="#DejaVuSans-32" x="63.623047"/>
       <use xlink:href="#DejaVuSans-30" x="127.246094"/>
       <use xlink:href="#DejaVuSans-30" x="190.869141"/>
      </g>
     </g>
    </g>
    <g id="xtick_8">
     <g id="line2d_8">
      <g>
       <use xlink:href="#m02077eda8e" x="377.045778" y="307.584" style="stroke: #000000; stroke-width: 0.8"/>
      </g>
     </g>
     <g id="text_8">
      <!-- 1400 -->
      <g transform="translate(364.320778 322.182437) scale(0.1 -0.1)">
       <use xlink:href="#DejaVuSans-31"/>
       <use xlink:href="#DejaVuSans-34" x="63.623047"/>
       <use xlink:href="#DejaVuSans-30" x="127.246094"/>
       <use xlink:href="#DejaVuSans-30" x="190.869141"/>
      </g>
     </g>
    </g>
    <g id="text_9">
     <!-- Timestep -->
     <g transform="translate(213.110781 335.860562) scale(0.1 -0.1)">
      <defs>
       <path id="DejaVuSans-54" d="M -19 4666 
L 3928 4666 
L 3928 4134 
L 2272 4134 
L 2272 0 
L 1638 0 
L 1638 4134 
L -19 4134 
L -19 4666 
z
" transform="scale(0.015625)"/>
       <path id="DejaVuSans-69" d="M 603 3500 
L 1178 3500 
L 1178 0 
L 603 0 
L 603 3500 
z
M 603 4863 
L 1178 4863 
L 1178 4134 
L 603 4134 
L 603 4863 
z
" transform="scale(0.015625)"/>
       <path id="DejaVuSans-6d" d="M 3328 2828 
Q 3544 3216 3844 3400 
Q 4144 3584 4550 3584 
Q 5097 3584 5394 3201 
Q 5691 2819 5691 2113 
L 5691 0 
L 5113 0 
L 5113 2094 
Q 5113 2597 4934 2840 
Q 4756 3084 4391 3084 
Q 3944 3084 3684 2787 
Q 3425 2491 3425 1978 
L 3425 0 
L 2847 0 
L 2847 2094 
Q 2847 2600 2669 2842 
Q 2491 3084 2119 3084 
Q 1678 3084 1418 2786 
Q 1159 2488 1159 1978 
L 1159 0 
L 581 0 
L 581 3500 
L 1159 3500 
L 1159 2956 
Q 1356 3278 1631 3431 
Q 1906 3584 2284 3584 
Q 2666 3584 2933 3390 
Q 3200 3197 3328 2828 
z
" transform="scale(0.015625)"/>
       <path id="DejaVuSans-65" d="M 3597 1894 
L 3597 1613 
L 953 1613 
Q 991 1019 1311 708 
Q 1631 397 2203 397 
Q 2534 397 2845 478 
Q 3156 559 3463 722 
L 3463 178 
Q 3153 47 2828 -22 
Q 2503 -91 2169 -91 
Q 1331 -91 842 396 
Q 353 884 353 1716 
Q 353 2575 817 3079 
Q 1281 3584 2069 3584 
Q 2775 3584 3186 3129 
Q 3597 2675 3597 1894 
z
M 3022 2063 
Q 3016 2534 2758 2815 
Q 2500 3097 2075 3097 
Q 1594 3097 1305 2825 
Q 1016 2553 972 2059 
L 3022 2063 
z
" transform="scale(0.015625)"/>
       <path id="DejaVuSans-73" d="M 2834 3397 
L 2834 2853 
Q 2591 2978 2328 3040 
Q 2066 3103 1784 3103 
Q 1356 3103 1142 2972 
Q 928 2841 928 2578 
Q 928 2378 1081 2264 
Q 1234 2150 1697 2047 
L 1894 2003 
Q 2506 1872 2764 1633 
Q 3022 1394 3022 966 
Q 3022 478 2636 193 
Q 2250 -91 1575 -91 
Q 1294 -91 989 -36 
Q 684 19 347 128 
L 347 722 
Q 666 556 975 473 
Q 1284 391 1588 391 
Q 1994 391 2212 530 
Q 2431 669 2431 922 
Q 2431 1156 2273 1281 
Q 2116 1406 1581 1522 
L 1381 1569 
Q 847 1681 609 1914 
Q 372 2147 372 2553 
Q 372 3047 722 3315 
Q 1072 3584 1716 3584 
Q 2034 3584 2315 3537 
Q 2597 3491 2834 3397 
z
" transform="scale(0.015625)"/>
       <path id="DejaVuSans-74" d="M 1172 4494 
L 1172 3500 
L 2356 3500 
L 2356 3053 
L 1172 3053 
L 1172 1153 
Q 1172 725 1289 603 
Q 1406 481 1766 481 
L 2356 481 
L 2356 0 
L 1766 0 
Q 1100 0 847 248 
Q 594 497 594 1153 
L 594 3053 
L 172 3053 
L 172 3500 
L 594 3500 
L 594 4494 
L 1172 4494 
z
" transform="scale(0.015625)"/>
       <path id="DejaVuSans-70" d="M 1159 525 
L 1159 -1331 
L 581 -1331 
L 581 3500 
L 1159 3500 
L 1159 2969 
Q 1341 3281 1617 3432 
Q 1894 3584 2278 3584 
Q 2916 3584 3314 3078 
Q 3713 2572 3713 1747 
Q 3713 922 3314 415 
Q 2916 -91 2278 -91 
Q 1894 -91 1617 61 
Q 1341 213 1159 525 
z
M 3116 1747 
Q 3116 2381 2855 2742 
Q 2594 3103 2138 3103 
Q 1681 3103 1420 2742 
Q 1159 2381 1159 1747 
Q 1159 1113 1420 752 
Q 1681 391 2138 391 
Q 2594 391 2855 752 
Q 3116 1113 3116 1747 
z
" transform="scale(0.015625)"/>
      </defs>
      <use xlink:href="#DejaVuSans-54"/>
      <use xlink:href="#DejaVuSans-69" x="57.958984"/>
      <use xlink:href="#DejaVuSans-6d" x="85.742188"/>
      <use xlink:href="#DejaVuSans-65" x="183.154297"/>
      <use xlink:href="#DejaVuSans-73" x="244.677734"/>
      <use xlink:href="#DejaVuSans-74" x="296.777344"/>
      <use xlink:href="#DejaVuSans-65" x="335.986328"/>
      <use xlink:href="#DejaVuSans-70" x="397.509766"/>
     </g>
    </g>
   </g>
   <g id="matplotlib.axis_2">
    <g id="ytick_1">
     <g id="line2d_9">
      <defs>
       <path id="m5f89b42947" d="M 0 0 
L -3.5 0 
" style="stroke: #000000; stroke-width: 0.8"/>
      </defs>
      <g>
       <use xlink:href="#m5f89b42947" x="57.6" y="295.766595" style="stroke: #000000; stroke-width: 0.8"/>
      </g>
     </g>
     <g id="text_10">
      <!-- −40 -->
      <g transform="translate(29.495313 299.565814) scale(0.1 -0.1)">
       <defs>
        <path id="DejaVuSans-2212" d="M 678 2272 
L 4684 2272 
L 4684 1741 
L 678 1741 
L 678 2272 
z
" transform="scale(0.015625)"/>
       </defs>
       <use xlink:href="#DejaVuSans-2212"/>
       <use xlink:href="#DejaVuSans-34" x="83.789062"/>
       <use xlink:href="#DejaVuSans-30" x="147.412109"/>
      </g>
     </g>
    </g>
    <g id="ytick_2">
     <g id="line2d_10">
      <g>
       <use xlink:href="#m5f89b42947" x="57.6" y="265.456866" style="stroke: #000000; stroke-width: 0.8"/>
      </g>
     </g>
     <g id="text_11">
      <!-- −30 -->
      <g transform="translate(29.495313 269.256085) scale(0.1 -0.1)">
       <defs>
        <path id="DejaVuSans-33" d="M 2597 2516 
Q 3050 2419 3304 2112 
Q 3559 1806 3559 1356 
Q 3559 666 3084 287 
Q 2609 -91 1734 -91 
Q 1441 -91 1130 -33 
Q 819 25 488 141 
L 488 750 
Q 750 597 1062 519 
Q 1375 441 1716 441 
Q 2309 441 2620 675 
Q 2931 909 2931 1356 
Q 2931 1769 2642 2001 
Q 2353 2234 1838 2234 
L 1294 2234 
L 1294 2753 
L 1863 2753 
Q 2328 2753 2575 2939 
Q 2822 3125 2822 3475 
Q 2822 3834 2567 4026 
Q 2313 4219 1838 4219 
Q 1578 4219 1281 4162 
Q 984 4106 628 3988 
L 628 4550 
Q 988 4650 1302 4700 
Q 1616 4750 1894 4750 
Q 2613 4750 3031 4423 
Q 3450 4097 3450 3541 
Q 3450 3153 3228 2886 
Q 3006 2619 2597 2516 
z
" transform="scale(0.015625)"/>
       </defs>
       <use xlink:href="#DejaVuSans-2212"/>
       <use xlink:href="#DejaVuSans-33" x="83.789062"/>
       <use xlink:href="#DejaVuSans-30" x="147.412109"/>
      </g>
     </g>
    </g>
    <g id="ytick_3">
     <g id="line2d_11">
      <g>
       <use xlink:href="#m5f89b42947" x="57.6" y="235.147137" style="stroke: #000000; stroke-width: 0.8"/>
      </g>
     </g>
     <g id="text_12">
      <!-- −20 -->
      <g transform="translate(29.495313 238.946356) scale(0.1 -0.1)">
       <use xlink:href="#DejaVuSans-2212"/>
       <use xlink:href="#DejaVuSans-32" x="83.789062"/>
       <use xlink:href="#DejaVuSans-30" x="147.412109"/>
      </g>
     </g>
    </g>
    <g id="ytick_4">
     <g id="line2d_12">
      <g>
       <use xlink:href="#m5f89b42947" x="57.6" y="204.837407" style="stroke: #000000; stroke-width: 0.8"/>
      </g>
     </g>
     <g id="text_13">
      <!-- −10 -->
      <g transform="translate(29.495313 208.636626) scale(0.1 -0.1)">
       <use xlink:href="#DejaVuSans-2212"/>
       <use xlink:href="#DejaVuSans-31" x="83.789062"/>
       <use xlink:href="#DejaVuSans-30" x="147.412109"/>
      </g>
     </g>
    </g>
    <g id="ytick_5">
     <g id="line2d_13">
      <g>
       <use xlink:href="#m5f89b42947" x="57.6" y="174.527678" style="stroke: #000000; stroke-width: 0.8"/>
      </g>
     </g>
     <g id="text_14">
      <!-- 0 -->
      <g transform="translate(44.2375 178.326897) scale(0.1 -0.1)">
       <use xlink:href="#DejaVuSans-30"/>
      </g>
     </g>
    </g>
    <g id="ytick_6">
     <g id="line2d_14">
      <g>
       <use xlink:href="#m5f89b42947" x="57.6" y="144.217949" style="stroke: #000000; stroke-width: 0.8"/>
      </g>
     </g>
     <g id="text_15">
      <!-- 10 -->
      <g transform="translate(37.875 148.017167) scale(0.1 -0.1)">
       <use xlink:href="#DejaVuSans-31"/>
       <use xlink:href="#DejaVuSans-30" x="63.623047"/>
      </g>
     </g>
    </g>
    <g id="ytick_7">
     <g id="line2d_15">
      <g>
       <use xlink:href="#m5f89b42947" x="57.6" y="113.908219" style="stroke: #000000; stroke-width: 0.8"/>
      </g>
     </g>
     <g id="text_16">
      <!-- 20 -->
      <g transform="translate(37.875 117.707438) scale(0.1 -0.1)">
       <use xlink:href="#DejaVuSans-32"/>
       <use xlink:href="#DejaVuSans-30" x="63.623047"/>
      </g>
     </g>
    </g>
    <g id="ytick_8">
     <g id="line2d_16">
      <g>
       <use xlink:href="#m5f89b42947" x="57.6" y="83.59849" style="stroke: #000000; stroke-width: 0.8"/>
      </g>
     </g>
     <g id="text_17">
      <!-- 30 -->
      <g transform="translate(37.875 87.397709) scale(0.1 -0.1)">
       <use xlink:href="#DejaVuSans-33"/>
       <use xlink:href="#DejaVuSans-30" x="63.623047"/>
      </g>
     </g>
    </g>
    <g id="ytick_9">
     <g id="line2d_17">
      <g>
       <use xlink:href="#m5f89b42947" x="57.6" y="53.288761" style="stroke: #000000; stroke-width: 0.8"/>
      </g>
     </g>
     <g id="text_18">
      <!-- 40 -->
      <g transform="translate(37.875 57.087979) scale(0.1 -0.1)">
       <use xlink:href="#DejaVuSans-34"/>
       <use xlink:href="#DejaVuSans-30" x="63.623047"/>
      </g>
     </g>
    </g>
    <g id="text_19">
     <!-- Output -->
     <g transform="translate(23.415625 191.895969) rotate(-90) scale(0.1 -0.1)">
      <defs>
       <path id="DejaVuSans-4f" d="M 2522 4238 
Q 1834 4238 1429 3725 
Q 1025 3213 1025 2328 
Q 1025 1447 1429 934 
Q 1834 422 2522 422 
Q 3209 422 3611 934 
Q 4013 1447 4013 2328 
Q 4013 3213 3611 3725 
Q 3209 4238 2522 4238 
z
M 2522 4750 
Q 3503 4750 4090 4092 
Q 4678 3434 4678 2328 
Q 4678 1225 4090 567 
Q 3503 -91 2522 -91 
Q 1538 -91 948 565 
Q 359 1222 359 2328 
Q 359 3434 948 4092 
Q 1538 4750 2522 4750 
z
" transform="scale(0.015625)"/>
       <path id="DejaVuSans-75" d="M 544 1381 
L 544 3500 
L 1119 3500 
L 1119 1403 
Q 1119 906 1312 657 
Q 1506 409 1894 409 
Q 2359 409 2629 706 
Q 2900 1003 2900 1516 
L 2900 3500 
L 3475 3500 
L 3475 0 
L 2900 0 
L 2900 538 
Q 2691 219 2414 64 
Q 2138 -91 1772 -91 
Q 1169 -91 856 284 
Q 544 659 544 1381 
z
M 1991 3584 
L 1991 3584 
z
" transform="scale(0.015625)"/>
      </defs>
      <use xlink:href="#DejaVuSans-4f"/>
      <use xlink:href="#DejaVuSans-75" x="78.710938"/>
      <use xlink:href="#DejaVuSans-74" x="142.089844"/>
      <use xlink:href="#DejaVuSans-70" x="181.298828"/>
      <use xlink:href="#DejaVuSans-75" x="244.775391"/>
      <use xlink:href="#DejaVuSans-74" x="308.154297"/>
     </g>
    </g>
   </g>
   <g id="line2d_18">
    <path d="M 73.832727 174.679197 
L 80.546731 174.774703 
L 82.279377 174.874461 
L 83.36228 174.702075 
L 84.445184 174.281064 
L 86.17783 173.518253 
L 86.827572 173.428529 
L 87.477315 173.554586 
L 88.127057 173.949102 
L 88.776799 174.631393 
L 89.643122 175.914118 
L 92.458672 180.549092 
L 93.108414 181.042229 
L 93.541576 181.150453 
L 93.974737 181.071709 
L 94.407899 180.803678 
L 95.057641 180.058466 
L 95.707383 178.935137 
L 96.573706 176.950812 
L 97.873191 173.287645 
L 99.822417 167.673074 
L 100.68874 165.695516 
L 101.338483 164.587605 
L 101.988225 163.897722 
L 102.421386 163.716697 
L 102.854548 163.789669 
L 103.287709 164.14094 
L 103.720871 164.791327 
L 104.370613 166.361671 
L 105.020355 168.65354 
L 105.886678 172.774777 
L 106.969582 179.241537 
L 109.13539 192.562862 
L 109.785132 195.391726 
L 110.218293 196.688123 
L 110.434874 197.08959 
L 110.651455 197.125861 
L 111.084616 196.483495 
L 111.517778 195.261488 
L 112.16752 192.423335 
L 112.817262 188.496205 
L 113.683585 181.770648 
L 114.98307 169.351461 
L 116.932297 150.2097 
L 117.79862 143.592363 
L 118.448362 139.955379 
L 119.098104 137.634253 
L 119.531266 136.864195 
L 119.747846 136.720457 
L 119.964427 136.74054 
L 120.181008 136.927132 
L 120.614169 137.805305 
L 121.047331 139.386659 
L 121.697073 143.083672 
L 122.346815 148.445532 
L 122.996558 156.477481 
L 124.079461 173.385221 
L 126.46185 212.144502 
L 127.328173 222.14981 
L 127.977915 227.348936 
L 128.411076 229.670935 
L 128.844238 231.069202 
L 129.060819 231.425697 
L 129.277399 231.556263 
L 129.49398 231.46361 
L 129.710561 231.14833 
L 130.143722 229.847129 
L 130.576884 227.658816 
L 131.226626 222.732581 
L 131.876368 215.867957 
L 132.742691 203.834461 
L 133.825595 184.895601 
L 136.641145 132.462174 
L 137.507468 120.573143 
L 138.373791 111.887871 
L 139.023533 107.595692 
L 139.456695 105.840882 
L 139.889856 104.967929 
L 140.106437 104.860555 
L 140.323018 104.974626 
L 140.539599 105.306756 
L 140.97276 106.624975 
L 141.405922 108.814826 
L 142.055664 113.708482 
L 142.705406 120.473215 
L 143.571729 132.204499 
L 144.654633 150.445382 
L 145.737537 172.070221 
L 147.903344 214.8524 
L 148.769667 228.334771 
L 149.63599 238.408625 
L 150.285732 243.481115 
L 150.718894 245.659023 
L 151.152055 246.879331 
L 151.368636 247.135339 
L 151.585217 247.158598 
L 151.801798 246.949576 
L 152.234959 245.832081 
L 152.668121 243.801378 
L 153.317863 239.093718 
L 153.967605 232.495132 
L 154.833928 220.999369 
L 155.916832 202.776875 
L 157.216316 176.14059 
L 159.815285 119.792584 
L 160.681608 105.131434 
L 161.547931 94.110116 
L 162.197674 88.547267 
L 162.630835 86.195672 
L 163.063997 84.964448 
L 163.280577 84.759512 
L 163.497158 84.827372 
L 163.713739 85.163377 
L 164.1469 86.630664 
L 164.580062 89.152872 
L 165.229804 94.91657 
L 165.879546 103.060354 
L 166.745869 117.656564 
L 167.612192 136.385861 
L 168.911677 170.455047 
L 170.644323 216.224461 
L 171.510646 234.54795 
L 172.376969 248.41243 
L 173.026711 255.644268 
L 173.676453 260.159852 
L 174.109615 261.685504 
L 174.326196 262.017833 
L 174.542776 262.065818 
L 174.759357 261.833097 
L 175.192519 260.538003 
L 175.62568 258.144 
L 176.275422 252.531575 
L 176.925165 244.529864 
L 177.791488 230.241466 
L 178.657811 212.057542 
L 179.957295 179.067336 
L 181.906522 128.312397 
L 182.989426 105.951832 
L 183.855749 92.65082 
L 184.505491 85.450483 
L 185.155233 80.707413 
L 185.588395 78.938738 
L 185.804975 78.473743 
L 186.021556 78.286686 
L 186.238137 78.375969 
L 186.454718 78.743894 
L 186.887879 80.286182 
L 187.321041 82.891671 
L 187.970783 88.796377 
L 188.620525 97.130823 
L 189.486848 112.071495 
L 190.353171 131.184068 
L 191.652656 165.506738 
L 193.385302 210.58415 
L 194.468205 233.327421 
L 195.334528 247.368472 
L 195.984271 255.321025 
L 196.634013 261.001249 
L 197.067174 263.508983 
L 197.500336 265.001125 
L 197.716917 265.366934 
L 197.933497 265.481728 
L 198.150078 265.343971 
L 198.366659 264.954458 
L 198.79982 263.426513 
L 199.232982 260.89797 
L 199.882724 255.254247 
L 200.532466 247.464664 
L 201.398789 233.930613 
L 202.481693 212.594853 
L 203.997759 177.104473 
L 205.946985 131.468145 
L 207.029889 110.518452 
L 207.896212 97.476282 
L 208.545954 90.157437 
L 209.195697 85.125543 
L 209.628858 83.091642 
L 210.06202 82.136926 
L 210.2786 82.065036 
L 210.495181 82.259264 
L 210.711762 82.718354 
L 211.144923 84.426857 
L 211.578085 87.182115 
L 212.227827 93.277859 
L 212.877569 101.721032 
L 213.743892 116.650227 
L 214.610215 135.537209 
L 216.126281 175.024435 
L 217.642346 213.482461 
L 218.72525 235.918474 
L 219.591573 249.94857 
L 220.457896 260.111438 
L 221.107638 265.030268 
L 221.540799 266.99703 
L 221.973961 267.898254 
L 222.190542 267.953457 
L 222.407122 267.745407 
L 222.840284 266.544526 
L 223.273445 264.293059 
L 223.923188 258.99284 
L 224.57293 251.41799 
L 225.439253 237.898629 
L 226.305576 220.83641 
L 227.60506 190.358589 
L 229.770868 139.041085 
L 230.853772 117.850111 
L 231.720095 104.290107 
L 232.586418 94.161599 
L 233.23616 89.072577 
L 233.669321 86.945283 
L 234.102483 85.854386 
L 234.319064 85.700482 
L 234.535644 85.805173 
L 234.752225 86.167926 
L 235.185387 87.663554 
L 235.618548 90.185496 
L 236.26829 95.882607 
L 236.918033 103.883075 
L 237.784356 118.03419 
L 238.867259 140.731113 
L 242.982294 235.694284 
L 244.065197 253.079938 
L 244.93152 263.040236 
L 245.581263 267.846939 
L 246.014424 269.689933 
L 246.447586 270.431854 
L 246.664166 270.386304 
L 246.880747 270.059679 
L 247.313909 268.584283 
L 247.74707 266.007021 
L 248.396812 260.122338 
L 249.046555 251.862099 
L 249.912878 237.318727 
L 250.995781 214.13616 
L 252.511847 175.660931 
L 254.677654 121.624421 
L 255.760558 99.597099 
L 256.626881 85.931079 
L 257.276623 78.492791 
L 257.926365 73.703588 
L 258.359527 72.016167 
L 258.576108 71.619201 
L 258.792688 71.519273 
L 259.009269 71.709506 
L 259.22585 72.18598 
L 259.659011 73.988056 
L 260.092173 76.913538 
L 260.741915 83.395124 
L 261.391657 92.428895 
L 262.25798 108.489174 
L 263.124303 128.929702 
L 264.423788 165.630358 
L 266.589595 228.034594 
L 267.672499 252.876805 
L 268.538822 267.478748 
L 269.188564 274.854592 
L 269.621726 278.034904 
L 270.054888 279.874432 
L 270.271468 280.309411 
L 270.488049 280.431175 
L 270.70463 280.240925 
L 270.921211 279.745598 
L 271.354372 277.842555 
L 271.787534 274.713183 
L 272.437276 267.662593 
L 273.087018 257.763999 
L 273.953341 240.24488 
L 275.036245 212.403467 
L 278.934698 104.250835 
L 279.801021 86.827648 
L 280.667344 73.831721 
L 281.317087 67.373478 
L 281.750248 64.704035 
L 282.18341 63.307407 
L 282.39999 63.076459 
L 282.616571 63.153096 
L 282.833152 63.53033 
L 283.266313 65.164238 
L 283.699475 67.957536 
L 284.349217 74.32774 
L 284.998959 83.388094 
L 285.648702 95.217951 
L 286.515025 115.228262 
L 287.597928 145.82585 
L 289.980317 215.605205 
L 291.06322 241.106353 
L 291.929543 257.022263 
L 292.579286 265.901825 
L 293.229028 271.926959 
L 293.662189 274.343863 
L 294.095351 275.500628 
L 294.311932 275.615642 
L 294.528512 275.426061 
L 294.745093 274.932405 
L 295.178255 273.044564 
L 295.611416 269.948829 
L 296.261158 263.034958 
L 296.910901 253.403945 
L 297.777224 236.521155 
L 298.860127 209.846941 
L 302.758581 105.541055 
L 303.624904 88.69549 
L 304.491227 75.937995 
L 305.140969 69.436426 
L 305.574131 66.642985 
L 306.007292 65.08065 
L 306.223873 64.757342 
L 306.440454 64.732605 
L 306.657034 65.003659 
L 307.090196 66.418108 
L 307.523357 68.975359 
L 308.1731 74.944841 
L 308.822842 83.492609 
L 309.472584 94.686637 
L 310.338907 113.811661 
L 311.421811 143.645866 
L 314.237361 225.410744 
L 315.320264 249.406503 
L 316.186587 263.777438 
L 316.83633 271.373815 
L 317.486072 276.125112 
L 317.919233 277.72257 
L 318.135814 278.064318 
L 318.352395 278.102831 
L 318.568976 277.842509 
L 319.002137 276.429538 
L 319.435299 273.801964 
L 320.085041 267.557176 
L 320.734783 258.561214 
L 321.601106 242.410584 
L 322.68401 216.467124 
L 327.015625 103.55045 
L 327.881948 87.809451 
L 328.748271 76.216658 
L 329.398013 70.617643 
L 329.831175 68.420673 
L 330.264336 67.463937 
L 330.480917 67.436058 
L 330.697498 67.702067 
L 331.130659 69.106717 
L 331.563821 71.652948 
L 332.213563 77.609938 
L 332.863305 86.148122 
L 333.513047 97.321341 
L 334.37937 116.361306 
L 335.462274 146.002261 
L 338.061243 221.393961 
L 339.144147 246.351946 
L 340.01047 261.897399 
L 340.660212 270.600307 
L 341.309955 276.577636 
L 341.743116 279.029564 
L 342.176278 280.270449 
L 342.392858 280.439783 
L 342.609439 280.313573 
L 342.82602 279.893828 
L 343.259181 278.163173 
L 343.692343 275.226021 
L 344.342085 268.599265 
L 344.991827 259.305554 
L 345.85815 242.951233 
L 346.941054 217.228534 
L 350.839508 117.410843 
L 351.922411 96.633774 
L 352.788734 84.236206 
L 353.438477 77.887365 
L 353.871638 75.164738 
L 354.3048 73.655602 
L 354.52138 73.350261 
L 354.737961 73.341922 
L 354.954542 73.624778 
L 355.387703 75.042433 
L 355.820865 77.582956 
L 356.470607 83.501786 
L 357.120349 91.978411 
L 357.986672 107.29944 
L 358.852995 127.08261 
L 360.15248 163.095579 
L 362.101707 218.027439 
L 363.18461 243.437676 
L 364.050933 259.738748 
L 364.917256 271.760069 
L 365.566999 277.62398 
L 366.00016 279.977539 
L 366.433322 281.10494 
L 366.649902 281.213913 
L 366.866483 281.025395 
L 367.083064 280.532699 
L 367.516225 278.651052 
L 367.949387 275.578103 
L 368.599129 268.740528 
L 369.248871 259.224221 
L 370.115194 242.556011 
L 371.198098 216.321048 
L 375.313132 108.66317 
L 376.396036 88.552054 
L 377.262359 77.035206 
L 377.912101 71.51527 
L 378.345263 69.402426 
L 378.778424 68.533162 
L 378.995005 68.558341 
L 379.211586 68.880991 
L 379.644747 70.407788 
L 380.077909 73.096025 
L 380.727651 79.280062 
L 381.377393 88.059263 
L 382.243716 103.900814 
L 383.110039 124.395183 
L 384.409524 162.016476 
L 386.575331 225.728267 
L 387.658235 251.279122 
L 388.524558 267.056234 
L 389.1743 275.723076 
L 389.824043 281.452393 
L 390.257204 283.646174 
L 390.690366 284.549007 
L 390.906946 284.52546 
L 391.123527 284.186235 
L 391.556689 282.576047 
L 391.98985 279.733805 
L 392.639592 273.11956 
L 393.289335 263.667876 
L 394.155658 246.765289 
L 395.238561 219.582728 
L 397.187788 161.840492 
L 398.487273 124.920501 
L 398.487273 124.920501 
" clip-path="url(#p2c44cc25d7)" style="fill: none; stroke: #1f77b4; stroke-width: 1.5; stroke-linecap: square"/>
   </g>
   <g id="line2d_19">
    <path d="M 73.832727 290.149093 
L 74.265889 293.374467 
L 74.69905 295.138211 
L 74.915631 295.464105 
L 75.132212 295.410215 
L 75.348793 294.980416 
L 75.781954 292.962705 
L 76.215116 289.437194 
L 76.864858 281.342362 
L 77.5146 270.074046 
L 78.380923 250.627261 
L 79.463827 220.718425 
L 83.795442 92.76903 
L 84.661765 75.179324 
L 85.311507 65.148619 
L 85.961249 58.114712 
L 86.394411 55.191947 
L 86.827572 53.734751 
L 87.044153 53.569534 
L 87.260734 53.780394 
L 87.477315 54.376369 
L 87.910476 56.696612 
L 88.343638 60.543256 
L 88.99338 69.080339 
L 89.643122 80.777145 
L 90.509445 100.714331 
L 91.592349 131.035235 
L 95.707383 253.356501 
L 96.573706 271.60209 
L 97.440029 285.06679 
L 98.089771 291.667599 
L 98.522933 294.28918 
L 98.956094 295.433753 
L 99.172675 295.442009 
L 99.389256 295.074277 
L 99.822417 293.19237 
L 100.255579 289.791456 
L 100.905321 281.89522 
L 101.555063 270.795277 
L 102.421386 251.540171 
L 103.50429 221.802613 
L 107.835905 93.6115 
L 108.702228 75.819566 
L 109.568551 62.886888 
L 110.218293 56.722763 
L 110.651455 54.403817 
L 110.868036 53.80127 
L 111.084616 53.568 
L 111.301197 53.715038 
L 111.517778 54.247095 
L 111.950939 56.44088 
L 112.384101 60.163466 
L 113.033843 68.523181 
L 113.683585 80.034086 
L 114.549908 99.784016 
L 115.632812 129.940693 
L 119.747846 252.489553 
L 120.614169 270.919574 
L 121.480492 284.608433 
L 122.130235 291.381038 
L 122.563396 294.125199 
L 122.996558 295.398097 
L 123.213138 295.470191 
L 123.429719 295.166227 
L 123.6463 294.477053 
L 124.079461 291.959335 
L 124.512623 287.929023 
L 125.162365 279.109336 
L 125.812107 267.169848 
L 126.67843 246.959809 
L 127.761334 216.401509 
L 131.659788 99.6018 
L 132.526111 80.538967 
L 133.392434 66.128818 
L 134.042176 58.746114 
L 134.475337 55.580084 
L 134.908499 53.87407 
L 135.12508 53.582964 
L 135.341661 53.667857 
L 135.558241 54.128597 
L 135.991403 56.208014 
L 136.424564 59.793921 
L 137.074307 67.97552 
L 137.724049 79.323383 
L 138.590372 98.860666 
L 139.673276 128.850251 
L 144.004891 256.674763 
L 144.871214 274.189824 
L 145.520956 284.133527 
L 146.170698 291.086197 
L 146.60386 293.952327 
L 147.037021 295.346944 
L 147.253602 295.481168 
L 147.470183 295.239319 
L 147.686763 294.622037 
L 148.119925 292.230741 
L 148.553086 288.323972 
L 149.202829 279.701028 
L 149.852571 267.925828 
L 150.718894 247.900243 
L 151.801798 217.501928 
L 155.916832 95.299239 
L 156.783155 77.137963 
L 157.649478 63.772711 
L 158.29922 57.253847 
L 158.732382 54.691154 
L 159.165543 53.602815 
L 159.382124 53.623868 
L 159.598705 54.029631 
L 160.031866 55.973194 
L 160.465028 59.434656 
L 161.11477 67.417898 
L 161.764512 78.621209 
L 162.630835 97.971697 
L 163.713739 127.764013 
L 168.045354 255.853904 
L 168.911677 273.541394 
L 169.561419 283.656335 
L 170.211161 290.78149 
L 170.644323 293.767803 
L 171.077484 295.289925 
L 171.294065 295.487965 
L 171.510646 295.30993 
L 171.727227 294.746826 
L 172.160388 292.491602 
L 172.59355 288.708727 
L 173.243292 280.26278 
L 173.893034 268.649272 
L 174.759357 248.833843 
L 175.842261 218.5984 
L 179.957295 96.143902 
L 180.823618 77.803243 
L 181.689941 64.226679 
L 182.339683 57.533844 
L 182.772845 54.848395 
L 183.206006 53.63859 
L 183.422587 53.597498 
L 183.639168 53.932434 
L 184.072329 55.748995 
L 184.505491 59.085702 
L 185.155233 66.889606 
L 185.804975 77.904505 
L 186.671298 97.062397 
L 187.754202 126.712328 
L 189.92001 194.607092 
L 191.436075 238.882001 
L 192.518979 264.511992 
L 193.385302 280.066823 
L 194.035044 288.376727 
L 194.684786 293.573174 
L 195.117948 295.217991 
L 195.334528 295.478124 
L 195.551109 295.36223 
L 195.76769 294.870558 
L 196.200851 292.741895 
L 196.634013 289.083251 
L 197.283755 280.81506 
L 197.933497 269.387889 
L 198.79982 249.732987 
L 199.882724 219.66043 
L 204.214339 91.975715 
L 205.080662 74.565827 
L 205.730405 64.689967 
L 206.380147 57.823745 
L 206.813308 55.017738 
L 207.24647 53.684625 
L 207.463051 53.57489 
L 207.679631 53.846042 
L 207.896212 54.502386 
L 208.329374 56.955105 
L 208.762535 60.921916 
L 209.412277 69.63054 
L 210.06202 81.483884 
L 210.928343 101.597446 
L 212.227827 138.678911 
L 215.693119 243.561457 
L 216.776023 268.147104 
L 217.642346 282.674344 
L 218.292088 290.142588 
L 218.72525 293.368458 
L 219.158411 295.135819 
L 219.374992 295.463535 
L 219.591573 295.411478 
L 219.808153 294.983509 
L 220.241315 292.969449 
L 220.674476 289.447512 
L 221.324219 281.357817 
L 221.973961 270.094213 
L 222.840284 250.652792 
L 223.923188 220.748751 
L 228.254803 92.793124 
L 229.121126 75.197947 
L 229.770868 65.162533 
L 230.42061 58.123526 
L 230.853772 55.19721 
L 231.286933 53.736389 
L 231.503514 53.569338 
L 231.720095 53.778366 
L 231.936675 54.372506 
L 232.369837 56.68912 
L 232.802998 60.532206 
L 233.452741 69.064205 
L 234.102483 80.756368 
L 234.968806 100.688312 
L 236.05171 131.004618 
L 240.166744 253.3317 
L 241.033067 271.582609 
L 241.89939 285.053563 
L 242.549132 291.659515 
L 242.982294 294.284664 
L 243.415455 295.43288 
L 243.632036 295.44297 
L 243.848617 295.077068 
L 244.281778 293.198809 
L 244.71494 289.801478 
L 245.364682 281.910392 
L 246.014424 270.815191 
L 246.880747 251.565501 
L 247.963651 221.832817 
L 252.295266 93.635803 
L 253.161589 75.838436 
L 254.027912 62.89942 
L 254.677654 56.730112 
L 255.110816 54.407583 
L 255.327396 53.80321 
L 255.543977 53.568116 
L 255.760558 53.713321 
L 255.977139 54.243541 
L 256.4103 56.433692 
L 256.843462 60.152709 
L 257.493204 68.507319 
L 258.142946 80.013557 
L 259.009269 99.758193 
L 260.092173 129.910191 
L 264.207207 252.46455 
L 265.07353 270.899845 
L 265.939853 284.594931 
L 266.589595 291.372653 
L 267.022757 294.120384 
L 267.455918 295.396913 
L 267.672499 295.47084 
L 267.88908 295.168708 
L 268.105661 294.481367 
L 268.538822 291.967276 
L 268.971984 287.940508 
L 269.621726 279.125877 
L 270.271468 267.190987 
L 271.137791 246.986111 
L 272.220695 216.43229 
L 276.119149 99.627474 
L 276.985472 80.559528 
L 277.851795 66.143283 
L 278.501537 58.755517 
L 278.934698 55.585952 
L 279.36786 53.876321 
L 279.584441 53.583383 
L 279.801021 53.666443 
L 280.017602 54.125353 
L 280.450764 56.201122 
L 280.883925 59.78346 
L 281.533667 67.959932 
L 282.18341 79.303097 
L 283.049733 98.83504 
L 284.132636 128.819867 
L 288.464251 256.650764 
L 289.330574 274.171326 
L 289.980317 284.119742 
L 290.630059 291.07752 
L 291.06322 293.947204 
L 291.496382 295.345458 
L 291.712963 295.481515 
L 291.929543 295.241498 
L 292.146124 294.626042 
L 292.579286 292.23838 
L 293.012447 288.335165 
L 293.662189 279.717293 
L 294.311932 267.946722 
L 295.178255 247.926353 
L 296.261158 217.532599 
L 300.376193 95.323948 
L 301.242516 77.15733 
L 302.108839 63.785807 
L 302.758581 57.261792 
L 303.191742 54.69552 
L 303.624904 53.603545 
L 303.841485 53.622765 
L 304.058065 54.026689 
L 304.491227 55.966607 
L 304.924388 59.42449 
L 305.574131 67.402591 
L 306.223873 78.601169 
L 307.090196 97.946267 
L 308.1731 127.73375 
L 312.504715 255.829702 
L 313.371038 273.52264 
L 314.02078 283.642278 
L 314.670522 290.772523 
L 315.103684 293.762381 
L 315.536845 295.288127 
L 315.753426 295.488 
L 315.970007 295.311798 
L 316.186587 294.75053 
L 316.619749 292.498938 
L 317.05291 288.719626 
L 317.702653 280.278774 
L 318.352395 268.669925 
L 319.218718 248.85976 
L 320.301622 218.628957 
L 324.416656 96.168806 
L 325.282979 77.822852 
L 326.149302 64.240052 
L 326.799044 57.542082 
L 327.232206 54.85307 
L 327.665367 53.639623 
L 327.881948 53.596698 
L 328.098529 53.929803 
L 328.53169 55.742713 
L 328.964852 59.075833 
L 329.614594 66.874576 
L 330.264336 77.884719 
L 331.130659 97.037169 
L 332.213563 126.682186 
L 334.37937 194.574784 
L 335.895436 238.854296 
L 336.978339 264.490155 
L 337.844663 280.050888 
L 338.494405 288.365737 
L 339.144147 293.567454 
L 339.577309 295.215891 
L 339.793889 295.477856 
L 340.01047 295.363795 
L 340.227051 294.873953 
L 340.660212 292.748927 
L 341.093374 289.093856 
L 341.743116 280.830781 
L 342.392858 269.408293 
L 343.259181 249.758711 
L 344.342085 219.690872 
L 348.6737 91.99961 
L 349.540023 74.584209 
L 350.189765 64.703614 
L 350.839508 57.832276 
L 351.272669 55.022712 
L 351.705831 53.685961 
L 351.922411 53.5744 
L 352.138992 53.8519 
L 352.355573 54.498231 
L 352.788734 56.947319 
L 353.221896 60.910581 
L 353.871638 69.614144 
L 354.52138 81.462873 
L 355.387703 101.571244 
L 356.687188 138.64758 
L 360.15248 243.534593 
L 361.235384 268.126419 
L 362.101707 282.659743 
L 362.751449 290.13304 
L 363.18461 293.362441 
L 363.617772 295.133417 
L 363.834353 295.462956 
L 364.050933 295.412732 
L 364.267514 294.986594 
L 364.700676 292.976185 
L 365.133837 289.457822 
L 365.783579 281.373264 
L 366.433322 270.114372 
L 367.299645 250.678317 
L 368.382548 220.779074 
L 372.714163 92.817224 
L 373.580486 75.216577 
L 374.230229 65.176454 
L 374.879971 58.132348 
L 375.313132 55.202483 
L 375.746294 53.738035 
L 375.962875 53.569152 
L 376.179455 53.776347 
L 376.396036 54.368652 
L 376.829198 56.681637 
L 377.262359 60.521164 
L 377.912101 69.04808 
L 378.561844 80.735598 
L 379.428167 100.662299 
L 380.51107 130.974005 
L 384.626105 253.306894 
L 385.492428 271.563121 
L 386.358751 285.040329 
L 387.008493 291.651423 
L 387.441654 294.280139 
L 387.874816 295.431998 
L 388.091397 295.443921 
L 388.307977 295.079851 
L 388.741139 293.205239 
L 389.1743 289.811491 
L 389.824043 281.925557 
L 390.473785 270.835098 
L 391.340108 251.590826 
L 392.423012 221.863018 
L 396.754627 93.660112 
L 397.62095 75.857314 
L 398.487273 62.911961 
L 398.487273 62.911961 
" clip-path="url(#p2c44cc25d7)" style="fill: none; stroke: #ff7f0e; stroke-width: 1.5; stroke-linecap: square"/>
   </g>
   <g id="patch_3">
    <path d="M 57.6 307.584 
L 57.6 41.472 
" style="fill: none; stroke: #000000; stroke-width: 0.8; stroke-linejoin: miter; stroke-linecap: square"/>
   </g>
   <g id="patch_4">
    <path d="M 414.72 307.584 
L 414.72 41.472 
" style="fill: none; stroke: #000000; stroke-width: 0.8; stroke-linejoin: miter; stroke-linecap: square"/>
   </g>
   <g id="patch_5">
    <path d="M 57.6 307.584 
L 414.72 307.584 
" style="fill: none; stroke: #000000; stroke-width: 0.8; stroke-linejoin: miter; stroke-linecap: square"/>
   </g>
   <g id="patch_6">
    <path d="M 57.6 41.472 
L 414.72 41.472 
" style="fill: none; stroke: #000000; stroke-width: 0.8; stroke-linejoin: miter; stroke-linecap: square"/>
   </g>
   <g id="text_20">
    <!-- TailOutputTracking_Trial157 -->
    <g transform="translate(153.94875 35.472) scale(0.12 -0.12)">
     <defs>
      <path id="DejaVuSans-61" d="M 2194 1759 
Q 1497 1759 1228 1600 
Q 959 1441 959 1056 
Q 959 750 1161 570 
Q 1363 391 1709 391 
Q 2188 391 2477 730 
Q 2766 1069 2766 1631 
L 2766 1759 
L 2194 1759 
z
M 3341 1997 
L 3341 0 
L 2766 0 
L 2766 531 
Q 2569 213 2275 61 
Q 1981 -91 1556 -91 
Q 1019 -91 701 211 
Q 384 513 384 1019 
Q 384 1609 779 1909 
Q 1175 2209 1959 2209 
L 2766 2209 
L 2766 2266 
Q 2766 2663 2505 2880 
Q 2244 3097 1772 3097 
Q 1472 3097 1187 3025 
Q 903 2953 641 2809 
L 641 3341 
Q 956 3463 1253 3523 
Q 1550 3584 1831 3584 
Q 2591 3584 2966 3190 
Q 3341 2797 3341 1997 
z
" transform="scale(0.015625)"/>
      <path id="DejaVuSans-6c" d="M 603 4863 
L 1178 4863 
L 1178 0 
L 603 0 
L 603 4863 
z
" transform="scale(0.015625)"/>
      <path id="DejaVuSans-72" d="M 2631 2963 
Q 2534 3019 2420 3045 
Q 2306 3072 2169 3072 
Q 1681 3072 1420 2755 
Q 1159 2438 1159 1844 
L 1159 0 
L 581 0 
L 581 3500 
L 1159 3500 
L 1159 2956 
Q 1341 3275 1631 3429 
Q 1922 3584 2338 3584 
Q 2397 3584 2469 3576 
Q 2541 3569 2628 3553 
L 2631 2963 
z
" transform="scale(0.015625)"/>
      <path id="DejaVuSans-63" d="M 3122 3366 
L 3122 2828 
Q 2878 2963 2633 3030 
Q 2388 3097 2138 3097 
Q 1578 3097 1268 2742 
Q 959 2388 959 1747 
Q 959 1106 1268 751 
Q 1578 397 2138 397 
Q 2388 397 2633 464 
Q 2878 531 3122 666 
L 3122 134 
Q 2881 22 2623 -34 
Q 2366 -91 2075 -91 
Q 1284 -91 818 406 
Q 353 903 353 1747 
Q 353 2603 823 3093 
Q 1294 3584 2113 3584 
Q 2378 3584 2631 3529 
Q 2884 3475 3122 3366 
z
" transform="scale(0.015625)"/>
      <path id="DejaVuSans-6b" d="M 581 4863 
L 1159 4863 
L 1159 1991 
L 2875 3500 
L 3609 3500 
L 1753 1863 
L 3688 0 
L 2938 0 
L 1159 1709 
L 1159 0 
L 581 0 
L 581 4863 
z
" transform="scale(0.015625)"/>
      <path id="DejaVuSans-6e" d="M 3513 2113 
L 3513 0 
L 2938 0 
L 2938 2094 
Q 2938 2591 2744 2837 
Q 2550 3084 2163 3084 
Q 1697 3084 1428 2787 
Q 1159 2491 1159 1978 
L 1159 0 
L 581 0 
L 581 3500 
L 1159 3500 
L 1159 2956 
Q 1366 3272 1645 3428 
Q 1925 3584 2291 3584 
Q 2894 3584 3203 3211 
Q 3513 2838 3513 2113 
z
" transform="scale(0.015625)"/>
      <path id="DejaVuSans-67" d="M 2906 1791 
Q 2906 2416 2648 2759 
Q 2391 3103 1925 3103 
Q 1463 3103 1205 2759 
Q 947 2416 947 1791 
Q 947 1169 1205 825 
Q 1463 481 1925 481 
Q 2391 481 2648 825 
Q 2906 1169 2906 1791 
z
M 3481 434 
Q 3481 -459 3084 -895 
Q 2688 -1331 1869 -1331 
Q 1566 -1331 1297 -1286 
Q 1028 -1241 775 -1147 
L 775 -588 
Q 1028 -725 1275 -790 
Q 1522 -856 1778 -856 
Q 2344 -856 2625 -561 
Q 2906 -266 2906 331 
L 2906 616 
Q 2728 306 2450 153 
Q 2172 0 1784 0 
Q 1141 0 747 490 
Q 353 981 353 1791 
Q 353 2603 747 3093 
Q 1141 3584 1784 3584 
Q 2172 3584 2450 3431 
Q 2728 3278 2906 2969 
L 2906 3500 
L 3481 3500 
L 3481 434 
z
" transform="scale(0.015625)"/>
      <path id="DejaVuSans-5f" d="M 3263 -1063 
L 3263 -1509 
L -63 -1509 
L -63 -1063 
L 3263 -1063 
z
" transform="scale(0.015625)"/>
      <path id="DejaVuSans-35" d="M 691 4666 
L 3169 4666 
L 3169 4134 
L 1269 4134 
L 1269 2991 
Q 1406 3038 1543 3061 
Q 1681 3084 1819 3084 
Q 2600 3084 3056 2656 
Q 3513 2228 3513 1497 
Q 3513 744 3044 326 
Q 2575 -91 1722 -91 
Q 1428 -91 1123 -41 
Q 819 9 494 109 
L 494 744 
Q 775 591 1075 516 
Q 1375 441 1709 441 
Q 2250 441 2565 725 
Q 2881 1009 2881 1497 
Q 2881 1984 2565 2268 
Q 2250 2553 1709 2553 
Q 1456 2553 1204 2497 
Q 953 2441 691 2322 
L 691 4666 
z
" transform="scale(0.015625)"/>
      <path id="DejaVuSans-37" d="M 525 4666 
L 3525 4666 
L 3525 4397 
L 1831 0 
L 1172 0 
L 2766 4134 
L 525 4134 
L 525 4666 
z
" transform="scale(0.015625)"/>
     </defs>
     <use xlink:href="#DejaVuSans-54"/>
     <use xlink:href="#DejaVuSans-61" x="44.583984"/>
     <use xlink:href="#DejaVuSans-69" x="105.863281"/>
     <use xlink:href="#DejaVuSans-6c" x="133.646484"/>
     <use xlink:href="#DejaVuSans-4f" x="161.429688"/>
     <use xlink:href="#DejaVuSans-75" x="240.140625"/>
     <use xlink:href="#DejaVuSans-74" x="303.519531"/>
     <use xlink:href="#DejaVuSans-70" x="342.728516"/>
     <use xlink:href="#DejaVuSans-75" x="406.205078"/>
     <use xlink:href="#DejaVuSans-74" x="469.583984"/>
     <use xlink:href="#DejaVuSans-54" x="508.792969"/>
     <use xlink:href="#DejaVuSans-72" x="555.126953"/>
     <use xlink:href="#DejaVuSans-61" x="596.240234"/>
     <use xlink:href="#DejaVuSans-63" x="657.519531"/>
     <use xlink:href="#DejaVuSans-6b" x="712.5"/>
     <use xlink:href="#DejaVuSans-69" x="770.410156"/>
     <use xlink:href="#DejaVuSans-6e" x="798.193359"/>
     <use xlink:href="#DejaVuSans-67" x="861.572266"/>
     <use xlink:href="#DejaVuSans-5f" x="925.048828"/>
     <use xlink:href="#DejaVuSans-54" x="975.048828"/>
     <use xlink:href="#DejaVuSans-72" x="1021.382812"/>
     <use xlink:href="#DejaVuSans-69" x="1062.496094"/>
     <use xlink:href="#DejaVuSans-61" x="1090.279297"/>
     <use xlink:href="#DejaVuSans-6c" x="1151.558594"/>
     <use xlink:href="#DejaVuSans-31" x="1179.341797"/>
     <use xlink:href="#DejaVuSans-35" x="1242.964844"/>
     <use xlink:href="#DejaVuSans-37" x="1306.587891"/>
    </g>
   </g>
   <g id="legend_1">
    <g id="patch_7">
     <path d="M 315.82625 190.706125 
L 407.72 190.706125 
Q 409.72 190.706125 409.72 188.706125 
L 409.72 160.349875 
Q 409.72 158.349875 407.72 158.349875 
L 315.82625 158.349875 
Q 313.82625 158.349875 313.82625 160.349875 
L 313.82625 188.706125 
Q 313.82625 190.706125 315.82625 190.706125 
z
" style="fill: #ffffff; opacity: 0.8; stroke: #cccccc; stroke-linejoin: miter"/>
    </g>
    <g id="line2d_20">
     <path d="M 317.82625 166.448312 
L 327.82625 166.448312 
L 337.82625 166.448312 
" style="fill: none; stroke: #1f77b4; stroke-width: 1.5; stroke-linecap: square"/>
    </g>
    <g id="text_21">
     <!-- Output 1 -->
     <g transform="translate(345.82625 169.948312) scale(0.1 -0.1)">
      <defs>
       <path id="DejaVuSans-20" transform="scale(0.015625)"/>
      </defs>
      <use xlink:href="#DejaVuSans-4f"/>
      <use xlink:href="#DejaVuSans-75" x="78.710938"/>
      <use xlink:href="#DejaVuSans-74" x="142.089844"/>
      <use xlink:href="#DejaVuSans-70" x="181.298828"/>
      <use xlink:href="#DejaVuSans-75" x="244.775391"/>
      <use xlink:href="#DejaVuSans-74" x="308.154297"/>
      <use xlink:href="#DejaVuSans-20" x="347.363281"/>
      <use xlink:href="#DejaVuSans-31" x="379.150391"/>
     </g>
    </g>
    <g id="line2d_21">
     <path d="M 317.82625 181.126437 
L 327.82625 181.126437 
L 337.82625 181.126437 
" style="fill: none; stroke: #ff7f0e; stroke-width: 1.5; stroke-linecap: square"/>
    </g>
    <g id="text_22">
     <!-- Reference 1 -->
     <g transform="translate(345.82625 184.626437) scale(0.1 -0.1)">
      <defs>
       <path id="DejaVuSans-52" d="M 2841 2188 
Q 3044 2119 3236 1894 
Q 3428 1669 3622 1275 
L 4263 0 
L 3584 0 
L 2988 1197 
Q 2756 1666 2539 1819 
Q 2322 1972 1947 1972 
L 1259 1972 
L 1259 0 
L 628 0 
L 628 4666 
L 2053 4666 
Q 2853 4666 3247 4331 
Q 3641 3997 3641 3322 
Q 3641 2881 3436 2590 
Q 3231 2300 2841 2188 
z
M 1259 4147 
L 1259 2491 
L 2053 2491 
Q 2509 2491 2742 2702 
Q 2975 2913 2975 3322 
Q 2975 3731 2742 3939 
Q 2509 4147 2053 4147 
L 1259 4147 
z
" transform="scale(0.015625)"/>
       <path id="DejaVuSans-66" d="M 2375 4863 
L 2375 4384 
L 1825 4384 
Q 1516 4384 1395 4259 
Q 1275 4134 1275 3809 
L 1275 3500 
L 2222 3500 
L 2222 3053 
L 1275 3053 
L 1275 0 
L 697 0 
L 697 3053 
L 147 3053 
L 147 3500 
L 697 3500 
L 697 3744 
Q 697 4328 969 4595 
Q 1241 4863 1831 4863 
L 2375 4863 
z
" transform="scale(0.015625)"/>
      </defs>
      <use xlink:href="#DejaVuSans-52"/>
      <use xlink:href="#DejaVuSans-65" x="64.982422"/>
      <use xlink:href="#DejaVuSans-66" x="126.505859"/>
      <use xlink:href="#DejaVuSans-65" x="161.710938"/>
      <use xlink:href="#DejaVuSans-72" x="223.234375"/>
      <use xlink:href="#DejaVuSans-65" x="262.097656"/>
      <use xlink:href="#DejaVuSans-6e" x="323.621094"/>
      <use xlink:href="#DejaVuSans-63" x="387"/>
      <use xlink:href="#DejaVuSans-65" x="441.980469"/>
      <use xlink:href="#DejaVuSans-20" x="503.503906"/>
      <use xlink:href="#DejaVuSans-31" x="535.291016"/>
     </g>
    </g>
   </g>
  </g>
 </g>
 <defs>
  <clipPath id="p2c44cc25d7">
   <rect x="57.6" y="41.472" width="357.12" height="266.112"/>
  </clipPath>
 </defs>
</svg>
