<?xml version="1.0" encoding="utf-8" standalone="no"?>
<!DOCTYPE svg PUBLIC "-//W3C//DTD SVG 1.1//EN"
  "http://www.w3.org/Graphics/SVG/1.1/DTD/svg11.dtd">
<svg xmlns:xlink="http://www.w3.org/1999/xlink" width="460.8pt" height="345.6pt" viewBox="0 0 460.8 345.6" xmlns="http://www.w3.org/2000/svg" version="1.1">
 <metadata>
  <rdf:RDF xmlns:dc="http://purl.org/dc/elements/1.1/" xmlns:cc="http://creativecommons.org/ns#" xmlns:rdf="http://www.w3.org/1999/02/22-rdf-syntax-ns#">
   <cc:Work>
    <dc:type rdf:resource="http://purl.org/dc/dcmitype/StillImage"/>
    <dc:date>2025-03-24T14:05:10.080977</dc:date>
    <dc:format>image/svg+xml</dc:format>
    <dc:creator>
     <cc:Agent>
      <dc:title>Matplotlib v3.8.4, https://matplotlib.org/</dc:title>
     </cc:Agent>
    </dc:creator>
   </cc:Work>
  </rdf:RDF>
 </metadata>
 <defs>
  <style type="text/css">*{stroke-linejoin: round; stroke-linecap: butt}</style>
 </defs>
 <g id="figure_1">
  <g id="patch_1">
   <path d="M 0 345.6 
L 460.8 345.6 
L 460.8 0 
L 0 0 
z
" style="fill: #ffffff"/>
  </g>
  <g id="axes_1">
   <g id="patch_2">
    <path d="M 57.6 307.584 
L 414.72 307.584 
L 414.72 41.472 
L 57.6 41.472 
z
" style="fill: #ffffff"/>
   </g>
   <g id="matplotlib.axis_1">
    <g id="xtick_1">
     <g id="line2d_1">
      <defs>
       <path id="mc0423775fc" d="M 0 0 
L 0 3.5 
" style="stroke: #000000; stroke-width: 0.8"/>
      </defs>
      <g>
       <use xlink:href="#mc0423775fc" x="73.832727" y="307.584" style="stroke: #000000; stroke-width: 0.8"/>
      </g>
     </g>
     <g id="text_1">
      <!-- 0 -->
      <g transform="translate(70.651477 322.182437) scale(0.1 -0.1)">
       <defs>
        <path id="DejaVuSans-30" d="M 2034 4250 
Q 1547 4250 1301 3770 
Q 1056 3291 1056 2328 
Q 1056 1369 1301 889 
Q 1547 409 2034 409 
Q 2525 409 2770 889 
Q 3016 1369 3016 2328 
Q 3016 3291 2770 3770 
Q 2525 4250 2034 4250 
z
M 2034 4750 
Q 2819 4750 3233 4129 
Q 3647 3509 3647 2328 
Q 3647 1150 3233 529 
Q 2819 -91 2034 -91 
Q 1250 -91 836 529 
Q 422 1150 422 2328 
Q 422 3509 836 4129 
Q 1250 4750 2034 4750 
z
" transform="scale(0.015625)"/>
       </defs>
       <use xlink:href="#DejaVuSans-30"/>
      </g>
     </g>
    </g>
    <g id="xtick_2">
     <g id="line2d_2">
      <g>
       <use xlink:href="#mc0423775fc" x="130.689916" y="307.584" style="stroke: #000000; stroke-width: 0.8"/>
      </g>
     </g>
     <g id="text_2">
      <!-- 200 -->
      <g transform="translate(121.146166 322.182437) scale(0.1 -0.1)">
       <defs>
        <path id="DejaVuSans-32" d="M 1228 531 
L 3431 531 
L 3431 0 
L 469 0 
L 469 531 
Q 828 903 1448 1529 
Q 2069 2156 2228 2338 
Q 2531 2678 2651 2914 
Q 2772 3150 2772 3378 
Q 2772 3750 2511 3984 
Q 2250 4219 1831 4219 
Q 1534 4219 1204 4116 
Q 875 4013 500 3803 
L 500 4441 
Q 881 4594 1212 4672 
Q 1544 4750 1819 4750 
Q 2544 4750 2975 4387 
Q 3406 4025 3406 3419 
Q 3406 3131 3298 2873 
Q 3191 2616 2906 2266 
Q 2828 2175 2409 1742 
Q 1991 1309 1228 531 
z
" transform="scale(0.015625)"/>
       </defs>
       <use xlink:href="#DejaVuSans-32"/>
       <use xlink:href="#DejaVuSans-30" x="63.623047"/>
       <use xlink:href="#DejaVuSans-30" x="127.246094"/>
      </g>
     </g>
    </g>
    <g id="xtick_3">
     <g id="line2d_3">
      <g>
       <use xlink:href="#mc0423775fc" x="187.547104" y="307.584" style="stroke: #000000; stroke-width: 0.8"/>
      </g>
     </g>
     <g id="text_3">
      <!-- 400 -->
      <g transform="translate(178.003354 322.182437) scale(0.1 -0.1)">
       <defs>
        <path id="DejaVuSans-34" d="M 2419 4116 
L 825 1625 
L 2419 1625 
L 2419 4116 
z
M 2253 4666 
L 3047 4666 
L 3047 1625 
L 3713 1625 
L 3713 1100 
L 3047 1100 
L 3047 0 
L 2419 0 
L 2419 1100 
L 313 1100 
L 313 1709 
L 2253 4666 
z
" transform="scale(0.015625)"/>
       </defs>
       <use xlink:href="#DejaVuSans-34"/>
       <use xlink:href="#DejaVuSans-30" x="63.623047"/>
       <use xlink:href="#DejaVuSans-30" x="127.246094"/>
      </g>
     </g>
    </g>
    <g id="xtick_4">
     <g id="line2d_4">
      <g>
       <use xlink:href="#mc0423775fc" x="244.404292" y="307.584" style="stroke: #000000; stroke-width: 0.8"/>
      </g>
     </g>
     <g id="text_4">
      <!-- 600 -->
      <g transform="translate(234.860542 322.182437) scale(0.1 -0.1)">
       <defs>
        <path id="DejaVuSans-36" d="M 2113 2584 
Q 1688 2584 1439 2293 
Q 1191 2003 1191 1497 
Q 1191 994 1439 701 
Q 1688 409 2113 409 
Q 2538 409 2786 701 
Q 3034 994 3034 1497 
Q 3034 2003 2786 2293 
Q 2538 2584 2113 2584 
z
M 3366 4563 
L 3366 3988 
Q 3128 4100 2886 4159 
Q 2644 4219 2406 4219 
Q 1781 4219 1451 3797 
Q 1122 3375 1075 2522 
Q 1259 2794 1537 2939 
Q 1816 3084 2150 3084 
Q 2853 3084 3261 2657 
Q 3669 2231 3669 1497 
Q 3669 778 3244 343 
Q 2819 -91 2113 -91 
Q 1303 -91 875 529 
Q 447 1150 447 2328 
Q 447 3434 972 4092 
Q 1497 4750 2381 4750 
Q 2619 4750 2861 4703 
Q 3103 4656 3366 4563 
z
" transform="scale(0.015625)"/>
       </defs>
       <use xlink:href="#DejaVuSans-36"/>
       <use xlink:href="#DejaVuSans-30" x="63.623047"/>
       <use xlink:href="#DejaVuSans-30" x="127.246094"/>
      </g>
     </g>
    </g>
    <g id="xtick_5">
     <g id="line2d_5">
      <g>
       <use xlink:href="#mc0423775fc" x="301.261481" y="307.584" style="stroke: #000000; stroke-width: 0.8"/>
      </g>
     </g>
     <g id="text_5">
      <!-- 800 -->
      <g transform="translate(291.717731 322.182437) scale(0.1 -0.1)">
       <defs>
        <path id="DejaVuSans-38" d="M 2034 2216 
Q 1584 2216 1326 1975 
Q 1069 1734 1069 1313 
Q 1069 891 1326 650 
Q 1584 409 2034 409 
Q 2484 409 2743 651 
Q 3003 894 3003 1313 
Q 3003 1734 2745 1975 
Q 2488 2216 2034 2216 
z
M 1403 2484 
Q 997 2584 770 2862 
Q 544 3141 544 3541 
Q 544 4100 942 4425 
Q 1341 4750 2034 4750 
Q 2731 4750 3128 4425 
Q 3525 4100 3525 3541 
Q 3525 3141 3298 2862 
Q 3072 2584 2669 2484 
Q 3125 2378 3379 2068 
Q 3634 1759 3634 1313 
Q 3634 634 3220 271 
Q 2806 -91 2034 -91 
Q 1263 -91 848 271 
Q 434 634 434 1313 
Q 434 1759 690 2068 
Q 947 2378 1403 2484 
z
M 1172 3481 
Q 1172 3119 1398 2916 
Q 1625 2713 2034 2713 
Q 2441 2713 2670 2916 
Q 2900 3119 2900 3481 
Q 2900 3844 2670 4047 
Q 2441 4250 2034 4250 
Q 1625 4250 1398 4047 
Q 1172 3844 1172 3481 
z
" transform="scale(0.015625)"/>
       </defs>
       <use xlink:href="#DejaVuSans-38"/>
       <use xlink:href="#DejaVuSans-30" x="63.623047"/>
       <use xlink:href="#DejaVuSans-30" x="127.246094"/>
      </g>
     </g>
    </g>
    <g id="xtick_6">
     <g id="line2d_6">
      <g>
       <use xlink:href="#mc0423775fc" x="358.118669" y="307.584" style="stroke: #000000; stroke-width: 0.8"/>
      </g>
     </g>
     <g id="text_6">
      <!-- 1000 -->
      <g transform="translate(345.393669 322.182437) scale(0.1 -0.1)">
       <defs>
        <path id="DejaVuSans-31" d="M 794 531 
L 1825 531 
L 1825 4091 
L 703 3866 
L 703 4441 
L 1819 4666 
L 2450 4666 
L 2450 531 
L 3481 531 
L 3481 0 
L 794 0 
L 794 531 
z
" transform="scale(0.015625)"/>
       </defs>
       <use xlink:href="#DejaVuSans-31"/>
       <use xlink:href="#DejaVuSans-30" x="63.623047"/>
       <use xlink:href="#DejaVuSans-30" x="127.246094"/>
       <use xlink:href="#DejaVuSans-30" x="190.869141"/>
      </g>
     </g>
    </g>
    <g id="text_7">
     <!-- Timestep -->
     <g transform="translate(213.110781 335.860562) scale(0.1 -0.1)">
      <defs>
       <path id="DejaVuSans-54" d="M -19 4666 
L 3928 4666 
L 3928 4134 
L 2272 4134 
L 2272 0 
L 1638 0 
L 1638 4134 
L -19 4134 
L -19 4666 
z
" transform="scale(0.015625)"/>
       <path id="DejaVuSans-69" d="M 603 3500 
L 1178 3500 
L 1178 0 
L 603 0 
L 603 3500 
z
M 603 4863 
L 1178 4863 
L 1178 4134 
L 603 4134 
L 603 4863 
z
" transform="scale(0.015625)"/>
       <path id="DejaVuSans-6d" d="M 3328 2828 
Q 3544 3216 3844 3400 
Q 4144 3584 4550 3584 
Q 5097 3584 5394 3201 
Q 5691 2819 5691 2113 
L 5691 0 
L 5113 0 
L 5113 2094 
Q 5113 2597 4934 2840 
Q 4756 3084 4391 3084 
Q 3944 3084 3684 2787 
Q 3425 2491 3425 1978 
L 3425 0 
L 2847 0 
L 2847 2094 
Q 2847 2600 2669 2842 
Q 2491 3084 2119 3084 
Q 1678 3084 1418 2786 
Q 1159 2488 1159 1978 
L 1159 0 
L 581 0 
L 581 3500 
L 1159 3500 
L 1159 2956 
Q 1356 3278 1631 3431 
Q 1906 3584 2284 3584 
Q 2666 3584 2933 3390 
Q 3200 3197 3328 2828 
z
" transform="scale(0.015625)"/>
       <path id="DejaVuSans-65" d="M 3597 1894 
L 3597 1613 
L 953 1613 
Q 991 1019 1311 708 
Q 1631 397 2203 397 
Q 2534 397 2845 478 
Q 3156 559 3463 722 
L 3463 178 
Q 3153 47 2828 -22 
Q 2503 -91 2169 -91 
Q 1331 -91 842 396 
Q 353 884 353 1716 
Q 353 2575 817 3079 
Q 1281 3584 2069 3584 
Q 2775 3584 3186 3129 
Q 3597 2675 3597 1894 
z
M 3022 2063 
Q 3016 2534 2758 2815 
Q 2500 3097 2075 3097 
Q 1594 3097 1305 2825 
Q 1016 2553 972 2059 
L 3022 2063 
z
" transform="scale(0.015625)"/>
       <path id="DejaVuSans-73" d="M 2834 3397 
L 2834 2853 
Q 2591 2978 2328 3040 
Q 2066 3103 1784 3103 
Q 1356 3103 1142 2972 
Q 928 2841 928 2578 
Q 928 2378 1081 2264 
Q 1234 2150 1697 2047 
L 1894 2003 
Q 2506 1872 2764 1633 
Q 3022 1394 3022 966 
Q 3022 478 2636 193 
Q 2250 -91 1575 -91 
Q 1294 -91 989 -36 
Q 684 19 347 128 
L 347 722 
Q 666 556 975 473 
Q 1284 391 1588 391 
Q 1994 391 2212 530 
Q 2431 669 2431 922 
Q 2431 1156 2273 1281 
Q 2116 1406 1581 1522 
L 1381 1569 
Q 847 1681 609 1914 
Q 372 2147 372 2553 
Q 372 3047 722 3315 
Q 1072 3584 1716 3584 
Q 2034 3584 2315 3537 
Q 2597 3491 2834 3397 
z
" transform="scale(0.015625)"/>
       <path id="DejaVuSans-74" d="M 1172 4494 
L 1172 3500 
L 2356 3500 
L 2356 3053 
L 1172 3053 
L 1172 1153 
Q 1172 725 1289 603 
Q 1406 481 1766 481 
L 2356 481 
L 2356 0 
L 1766 0 
Q 1100 0 847 248 
Q 594 497 594 1153 
L 594 3053 
L 172 3053 
L 172 3500 
L 594 3500 
L 594 4494 
L 1172 4494 
z
" transform="scale(0.015625)"/>
       <path id="DejaVuSans-70" d="M 1159 525 
L 1159 -1331 
L 581 -1331 
L 581 3500 
L 1159 3500 
L 1159 2969 
Q 1341 3281 1617 3432 
Q 1894 3584 2278 3584 
Q 2916 3584 3314 3078 
Q 3713 2572 3713 1747 
Q 3713 922 3314 415 
Q 2916 -91 2278 -91 
Q 1894 -91 1617 61 
Q 1341 213 1159 525 
z
M 3116 1747 
Q 3116 2381 2855 2742 
Q 2594 3103 2138 3103 
Q 1681 3103 1420 2742 
Q 1159 2381 1159 1747 
Q 1159 1113 1420 752 
Q 1681 391 2138 391 
Q 2594 391 2855 752 
Q 3116 1113 3116 1747 
z
" transform="scale(0.015625)"/>
      </defs>
      <use xlink:href="#DejaVuSans-54"/>
      <use xlink:href="#DejaVuSans-69" x="57.958984"/>
      <use xlink:href="#DejaVuSans-6d" x="85.742188"/>
      <use xlink:href="#DejaVuSans-65" x="183.154297"/>
      <use xlink:href="#DejaVuSans-73" x="244.677734"/>
      <use xlink:href="#DejaVuSans-74" x="296.777344"/>
      <use xlink:href="#DejaVuSans-65" x="335.986328"/>
      <use xlink:href="#DejaVuSans-70" x="397.509766"/>
     </g>
    </g>
   </g>
   <g id="matplotlib.axis_2">
    <g id="ytick_1">
     <g id="line2d_7">
      <defs>
       <path id="mcb021ce289" d="M 0 0 
L -3.5 0 
" style="stroke: #000000; stroke-width: 0.8"/>
      </defs>
      <g>
       <use xlink:href="#mcb021ce289" x="57.6" y="292.015269" style="stroke: #000000; stroke-width: 0.8"/>
      </g>
     </g>
     <g id="text_8">
      <!-- −80 -->
      <g transform="translate(29.495313 295.814488) scale(0.1 -0.1)">
       <defs>
        <path id="DejaVuSans-2212" d="M 678 2272 
L 4684 2272 
L 4684 1741 
L 678 1741 
L 678 2272 
z
" transform="scale(0.015625)"/>
       </defs>
       <use xlink:href="#DejaVuSans-2212"/>
       <use xlink:href="#DejaVuSans-38" x="83.789062"/>
       <use xlink:href="#DejaVuSans-30" x="147.412109"/>
      </g>
     </g>
    </g>
    <g id="ytick_2">
     <g id="line2d_8">
      <g>
       <use xlink:href="#mcb021ce289" x="57.6" y="260.640324" style="stroke: #000000; stroke-width: 0.8"/>
      </g>
     </g>
     <g id="text_9">
      <!-- −60 -->
      <g transform="translate(29.495313 264.439543) scale(0.1 -0.1)">
       <use xlink:href="#DejaVuSans-2212"/>
       <use xlink:href="#DejaVuSans-36" x="83.789062"/>
       <use xlink:href="#DejaVuSans-30" x="147.412109"/>
      </g>
     </g>
    </g>
    <g id="ytick_3">
     <g id="line2d_9">
      <g>
       <use xlink:href="#mcb021ce289" x="57.6" y="229.265379" style="stroke: #000000; stroke-width: 0.8"/>
      </g>
     </g>
     <g id="text_10">
      <!-- −40 -->
      <g transform="translate(29.495313 233.064598) scale(0.1 -0.1)">
       <use xlink:href="#DejaVuSans-2212"/>
       <use xlink:href="#DejaVuSans-34" x="83.789062"/>
       <use xlink:href="#DejaVuSans-30" x="147.412109"/>
      </g>
     </g>
    </g>
    <g id="ytick_4">
     <g id="line2d_10">
      <g>
       <use xlink:href="#mcb021ce289" x="57.6" y="197.890434" style="stroke: #000000; stroke-width: 0.8"/>
      </g>
     </g>
     <g id="text_11">
      <!-- −20 -->
      <g transform="translate(29.495313 201.689653) scale(0.1 -0.1)">
       <use xlink:href="#DejaVuSans-2212"/>
       <use xlink:href="#DejaVuSans-32" x="83.789062"/>
       <use xlink:href="#DejaVuSans-30" x="147.412109"/>
      </g>
     </g>
    </g>
    <g id="ytick_5">
     <g id="line2d_11">
      <g>
       <use xlink:href="#mcb021ce289" x="57.6" y="166.515489" style="stroke: #000000; stroke-width: 0.8"/>
      </g>
     </g>
     <g id="text_12">
      <!-- 0 -->
      <g transform="translate(44.2375 170.314708) scale(0.1 -0.1)">
       <use xlink:href="#DejaVuSans-30"/>
      </g>
     </g>
    </g>
    <g id="ytick_6">
     <g id="line2d_12">
      <g>
       <use xlink:href="#mcb021ce289" x="57.6" y="135.140544" style="stroke: #000000; stroke-width: 0.8"/>
      </g>
     </g>
     <g id="text_13">
      <!-- 20 -->
      <g transform="translate(37.875 138.939763) scale(0.1 -0.1)">
       <use xlink:href="#DejaVuSans-32"/>
       <use xlink:href="#DejaVuSans-30" x="63.623047"/>
      </g>
     </g>
    </g>
    <g id="ytick_7">
     <g id="line2d_13">
      <g>
       <use xlink:href="#mcb021ce289" x="57.6" y="103.765599" style="stroke: #000000; stroke-width: 0.8"/>
      </g>
     </g>
     <g id="text_14">
      <!-- 40 -->
      <g transform="translate(37.875 107.564817) scale(0.1 -0.1)">
       <use xlink:href="#DejaVuSans-34"/>
       <use xlink:href="#DejaVuSans-30" x="63.623047"/>
      </g>
     </g>
    </g>
    <g id="ytick_8">
     <g id="line2d_14">
      <g>
       <use xlink:href="#mcb021ce289" x="57.6" y="72.390654" style="stroke: #000000; stroke-width: 0.8"/>
      </g>
     </g>
     <g id="text_15">
      <!-- 60 -->
      <g transform="translate(37.875 76.189872) scale(0.1 -0.1)">
       <use xlink:href="#DejaVuSans-36"/>
       <use xlink:href="#DejaVuSans-30" x="63.623047"/>
      </g>
     </g>
    </g>
    <g id="text_16">
     <!-- Output -->
     <g transform="translate(23.415625 191.895969) rotate(-90) scale(0.1 -0.1)">
      <defs>
       <path id="DejaVuSans-4f" d="M 2522 4238 
Q 1834 4238 1429 3725 
Q 1025 3213 1025 2328 
Q 1025 1447 1429 934 
Q 1834 422 2522 422 
Q 3209 422 3611 934 
Q 4013 1447 4013 2328 
Q 4013 3213 3611 3725 
Q 3209 4238 2522 4238 
z
M 2522 4750 
Q 3503 4750 4090 4092 
Q 4678 3434 4678 2328 
Q 4678 1225 4090 567 
Q 3503 -91 2522 -91 
Q 1538 -91 948 565 
Q 359 1222 359 2328 
Q 359 3434 948 4092 
Q 1538 4750 2522 4750 
z
" transform="scale(0.015625)"/>
       <path id="DejaVuSans-75" d="M 544 1381 
L 544 3500 
L 1119 3500 
L 1119 1403 
Q 1119 906 1312 657 
Q 1506 409 1894 409 
Q 2359 409 2629 706 
Q 2900 1003 2900 1516 
L 2900 3500 
L 3475 3500 
L 3475 0 
L 2900 0 
L 2900 538 
Q 2691 219 2414 64 
Q 2138 -91 1772 -91 
Q 1169 -91 856 284 
Q 544 659 544 1381 
z
M 1991 3584 
L 1991 3584 
z
" transform="scale(0.015625)"/>
      </defs>
      <use xlink:href="#DejaVuSans-4f"/>
      <use xlink:href="#DejaVuSans-75" x="78.710938"/>
      <use xlink:href="#DejaVuSans-74" x="142.089844"/>
      <use xlink:href="#DejaVuSans-70" x="181.298828"/>
      <use xlink:href="#DejaVuSans-75" x="244.775391"/>
      <use xlink:href="#DejaVuSans-74" x="308.154297"/>
     </g>
    </g>
   </g>
   <g id="line2d_15">
    <path d="M 73.832727 166.593911 
L 82.645591 166.684908 
L 85.488451 166.987688 
L 86.625595 166.781606 
L 87.762738 166.321727 
L 89.468454 165.325793 
L 93.164171 163.027857 
L 94.017029 162.84664 
L 94.585601 162.925009 
L 95.154173 163.202059 
L 95.722745 163.69295 
L 96.575603 164.830372 
L 97.42846 166.407708 
L 98.565604 169.092839 
L 99.987034 173.213335 
L 104.535609 187.465437 
L 105.957039 190.902627 
L 107.378468 193.831746 
L 108.515612 195.758374 
L 109.36847 196.89472 
L 110.221328 197.652702 
L 110.7899 197.870539 
L 111.358472 197.787052 
L 111.927043 197.328073 
L 112.495615 196.420793 
L 113.064187 194.989678 
L 113.632759 192.962255 
L 114.485617 188.714764 
L 115.338475 182.963371 
L 116.191333 175.735215 
L 117.328476 164.053804 
L 118.749906 146.993604 
L 121.024194 119.077648 
L 121.877051 110.649928 
L 122.729909 104.257913 
L 123.582767 99.88482 
L 124.151339 97.950863 
L 124.719911 96.690593 
L 125.288483 96.051334 
L 125.572769 95.964601 
L 125.857055 96.021686 
L 126.141341 96.21916 
L 126.709912 97.027157 
L 127.278484 98.401559 
L 127.847056 100.343249 
L 128.699914 104.320707 
L 129.552772 109.651075 
L 130.40563 116.440831 
L 131.258488 124.981535 
L 132.111345 135.595161 
L 133.248489 153.099568 
L 134.385633 174.249106 
L 137.228492 230.021688 
L 138.08135 242.933136 
L 138.934208 253.003069 
L 139.787066 260.318767 
L 140.639924 265.286927 
L 141.208495 267.479812 
L 141.777067 268.877384 
L 142.345639 269.511499 
L 142.629925 269.543879 
L 142.914211 269.380459 
L 143.198497 269.012364 
L 143.767069 267.63248 
L 144.335641 265.317216 
L 144.904213 261.978126 
L 145.757071 255.01537 
L 146.609928 245.7558 
L 147.747072 230.534434 
L 149.168502 208.184372 
L 151.158503 172.588168 
L 154.001363 120.8684 
L 154.854221 109.432067 
L 155.707078 101.054435 
L 156.27565 97.096283 
L 156.844222 94.282887 
L 157.412794 92.676892 
L 157.69708 92.298603 
L 157.981366 92.196379 
L 158.265652 92.363128 
L 158.549938 92.792019 
L 159.11851 94.418995 
L 159.687082 97.044453 
L 160.255654 100.648669 
L 161.108511 107.864201 
L 161.961369 117.188899 
L 163.098513 132.755869 
L 164.235657 151.906094 
L 165.372801 175.296012 
L 167.362802 218.830433 
L 168.21566 232.989124 
L 169.068518 243.594046 
L 169.921376 251.211023 
L 170.774233 256.297069 
L 171.342805 258.347271 
L 171.911377 259.415864 
L 172.195663 259.59471 
L 172.479949 259.539887 
L 172.764235 259.254701 
L 173.332807 258.000465 
L 173.901379 255.835037 
L 174.469951 252.761611 
L 175.322808 246.402887 
L 176.175666 237.830879 
L 177.028524 226.96643 
L 178.165668 208.845297 
L 179.302812 186.667457 
L 180.724241 154.269453 
L 182.998529 101.813437 
L 184.135673 81.016213 
L 184.98853 69.883249 
L 185.557102 64.622583 
L 186.125674 60.833475 
L 186.694246 58.100247 
L 187.262818 56.372432 
L 187.547104 55.855081 
L 187.83139 55.586438 
L 188.115676 55.578642 
L 188.399962 55.845432 
L 188.684248 56.405614 
L 189.25282 58.430805 
L 189.821391 61.687362 
L 190.389963 66.14686 
L 191.242821 74.958485 
L 192.095679 86.185953 
L 192.948537 99.966807 
L 194.085681 122.613939 
L 195.222824 150.035109 
L 197.212826 204.529141 
L 198.634256 241.946372 
L 199.487114 260.148911 
L 200.339971 274.136109 
L 201.192829 284.071948 
L 201.761401 288.801739 
L 202.329973 292.176123 
L 202.898545 294.31243 
L 203.467117 295.345308 
L 203.751403 295.488 
L 204.035689 295.385072 
L 204.319975 295.044235 
L 204.888546 293.644475 
L 205.457118 291.236851 
L 206.02569 287.761828 
L 206.878548 280.498622 
L 207.731406 270.695301 
L 208.584264 258.26677 
L 209.721407 237.597919 
L 210.858551 212.096577 
L 212.279981 174.666481 
L 214.269982 121.667891 
L 215.407126 97.119062 
L 216.259984 82.903956 
L 217.112842 72.536428 
L 217.9657 65.523413 
L 218.534272 62.228109 
L 219.102843 59.945547 
L 219.671415 58.565488 
L 219.955701 58.22289 
L 220.239987 58.124564 
L 220.524273 58.287748 
L 220.808559 58.717741 
L 221.377131 60.42343 
L 221.945703 63.332294 
L 222.514275 67.527745 
L 223.367133 76.331516 
L 224.21999 88.166875 
L 225.357134 108.271086 
L 226.778564 139.040183 
L 230.189995 216.87408 
L 231.327139 235.502836 
L 232.179997 245.996152 
L 233.032855 253.638347 
L 233.601427 257.121656 
L 234.169998 259.426549 
L 234.73857 260.615195 
L 235.022856 260.814522 
L 235.307142 260.751024 
L 235.591428 260.4389 
L 236.16 259.059597 
L 236.728572 256.711092 
L 237.297144 253.375684 
L 238.150002 246.480878 
L 239.002859 237.32649 
L 240.140003 221.85643 
L 241.277147 202.928452 
L 242.414291 180.42787 
L 244.120006 141.407321 
L 245.825722 103.086458 
L 246.962866 82.387781 
L 247.815724 70.786235 
L 248.668581 62.617993 
L 249.237153 58.824822 
L 249.805725 56.176354 
L 250.374297 54.471258 
L 250.942869 53.64993 
L 251.227155 53.568 
L 251.511441 53.711887 
L 251.795727 54.109716 
L 252.364299 55.687344 
L 252.932871 58.406475 
L 253.501442 62.326612 
L 254.070014 67.508376 
L 254.922872 77.712148 
L 255.77573 90.839844 
L 256.912874 112.369987 
L 258.618589 150.332074 
L 261.745735 222.820426 
L 262.882879 243.76485 
L 263.735736 255.93242 
L 264.588594 265.215371 
L 265.441452 271.656212 
L 266.010024 274.507383 
L 266.578596 276.302537 
L 266.862882 276.825671 
L 267.147168 277.116062 
L 267.431454 277.180126 
L 267.71574 277.017693 
L 268.000025 276.635919 
L 268.568597 275.199503 
L 269.137169 272.86254 
L 269.705741 269.595705 
L 270.558599 262.921318 
L 271.411457 254.096933 
L 272.264315 243.170681 
L 273.401458 225.446834 
L 274.538602 204.113676 
L 276.244318 167.212556 
L 278.234319 125.188467 
L 279.371463 105.271873 
L 280.508607 89.788391 
L 281.361465 81.239601 
L 282.214323 75.07894 
L 282.782894 72.226615 
L 283.351466 70.349843 
L 283.635752 69.790799 
L 283.920038 69.499008 
L 284.204324 69.474 
L 284.48861 69.716935 
L 284.772896 70.223528 
L 285.341468 72.025673 
L 285.91004 74.817323 
L 286.762898 80.702784 
L 287.615755 88.503832 
L 288.468613 98.22466 
L 289.605757 114.205495 
L 291.027187 138.218831 
L 292.732902 171.139962 
L 295.291476 222.348592 
L 296.144334 234.585057 
L 296.997192 243.931596 
L 297.850049 250.754496 
L 298.418621 253.92699 
L 298.987193 256.084868 
L 299.555765 257.29696 
L 299.840051 257.57181 
L 300.124337 257.635205 
L 300.408623 257.488197 
L 300.692909 257.139183 
L 301.261481 255.857066 
L 301.830053 253.804081 
L 302.398624 250.976646 
L 303.251482 245.189761 
L 304.10434 237.367981 
L 304.957198 227.429796 
L 306.094342 210.703692 
L 307.515771 185.094495 
L 310.358631 131.650774 
L 311.495775 114.666233 
L 312.348632 104.408516 
L 313.20149 96.683272 
L 314.054348 91.450977 
L 314.62292 89.211035 
L 315.191492 87.923972 
L 315.475778 87.6534 
L 315.760064 87.640753 
L 316.04435 87.890846 
L 316.328636 88.412151 
L 316.897207 90.274508 
L 317.465779 93.207798 
L 318.318637 99.441815 
L 319.171495 107.481268 
L 320.308639 120.566349 
L 321.445783 136.376909 
L 323.151498 164.178398 
L 325.710072 210.031195 
L 327.415787 239.703792 
L 328.268645 251.261435 
L 329.121503 259.94064 
L 329.690075 264.172443 
L 330.258647 267.226332 
L 330.827219 269.232803 
L 331.39579 270.2937 
L 331.680076 270.496331 
L 331.964362 270.486656 
L 332.248648 270.270751 
L 332.532934 269.850394 
L 333.101506 268.411377 
L 333.670078 266.187159 
L 334.23865 263.192238 
L 335.091508 257.245548 
L 335.944366 249.442812 
L 336.797223 239.642287 
L 337.934367 223.425375 
L 339.071511 203.559571 
L 340.777227 168.883756 
L 342.767228 128.762303 
L 344.188658 104.769307 
L 345.041516 93.237211 
L 345.894374 84.326899 
L 346.747231 78.089854 
L 347.315803 75.198456 
L 347.884375 73.262574 
L 348.452947 72.297969 
L 348.737233 72.205886 
L 349.021519 72.375667 
L 349.305805 72.813382 
L 349.874377 74.483779 
L 350.442949 77.164692 
L 351.295806 82.887735 
L 352.148664 90.447499 
L 353.001522 99.814032 
L 354.138666 115.219328 
L 355.560096 138.753656 
L 357.550097 176.390973 
L 359.824385 221.063381 
L 360.677242 233.95668 
L 361.5301 243.848288 
L 362.382958 251.031377 
L 362.95153 254.42084 
L 363.520102 256.786936 
L 364.088674 258.192647 
L 364.37296 258.554178 
L 364.657246 258.698595 
L 364.941532 258.624522 
L 365.225818 258.346045 
L 365.794389 257.183794 
L 366.362961 255.23308 
L 366.931533 252.501049 
L 367.784391 246.897857 
L 368.637249 239.358854 
L 369.490107 229.829942 
L 370.62725 213.830951 
L 371.764394 194.170986 
L 373.47011 159.450225 
L 375.460111 119.462617 
L 376.597255 100.505025 
L 377.450113 89.164057 
L 378.302971 80.939549 
L 378.871543 77.10304 
L 379.440115 74.36051 
L 380.008687 72.482609 
L 380.577258 71.575732 
L 380.861544 71.494162 
L 381.14583 71.683521 
L 381.430116 72.151737 
L 381.998688 73.947318 
L 382.56726 76.877047 
L 383.135832 80.855563 
L 383.98869 88.596796 
L 384.841548 98.229198 
L 385.978691 113.980349 
L 387.115835 133.165943 
L 388.537265 160.986627 
L 392.232982 237.567155 
L 393.08584 249.238087 
L 393.938698 257.743 
L 394.50727 261.795138 
L 395.075841 264.716048 
L 395.644413 266.590836 
L 396.212985 267.480106 
L 396.497271 267.572781 
L 396.781557 267.441808 
L 397.065843 267.088763 
L 397.634415 265.72986 
L 398.202987 263.517714 
L 398.487273 262.096638 
L 398.487273 262.096638 
" clip-path="url(#pc0fccc2a77)" style="fill: none; stroke: #1f77b4; stroke-width: 1.5; stroke-linecap: square"/>
   </g>
   <g id="line2d_16">
    <path d="M 73.832727 196.39573 
L 74.401299 197.273925 
L 74.969871 197.764009 
L 75.538443 197.857008 
L 76.107015 197.551714 
L 76.675587 196.851966 
L 77.244159 195.762314 
L 78.097016 193.42813 
L 78.949874 190.313715 
L 80.087018 185.110203 
L 81.508448 177.286806 
L 86.625595 147.102639 
L 87.762738 142.09937 
L 88.615596 139.142455 
L 89.468454 136.964079 
L 90.037026 135.97373 
L 90.605598 135.369617 
L 91.17417 135.15946 
L 91.742742 135.348421 
L 92.311313 135.933487 
L 92.879885 136.91134 
L 93.448457 138.267073 
L 94.301315 140.975925 
L 95.154173 144.432546 
L 96.291317 150.013582 
L 97.712746 158.148056 
L 102.261321 185.112029 
L 103.398465 190.274363 
L 104.251323 193.372885 
L 105.104181 195.707313 
L 105.672753 196.807855 
L 106.241325 197.525339 
L 106.809897 197.850611 
L 107.378468 197.779477 
L 107.94704 197.30973 
L 108.515612 196.44474 
L 109.084184 195.19772 
L 109.937042 192.641326 
L 110.7899 189.327128 
L 111.927043 183.894984 
L 113.348473 175.882532 
L 117.897048 148.760704 
L 119.034192 143.43926 
L 119.88705 140.205426 
L 120.739908 137.714504 
L 121.30848 136.505734 
L 121.877051 135.674757 
L 122.445623 135.233829 
L 123.014195 135.190525 
L 123.582767 135.545308 
L 124.151339 136.293711 
L 124.719911 137.43066 
L 125.572769 139.831814 
L 126.425626 143.006676 
L 127.56277 148.284843 
L 128.9842 156.167036 
L 134.101347 186.272196 
L 135.238491 191.205382 
L 136.091349 194.10043 
L 136.944206 196.211007 
L 137.512778 197.153672 
L 138.08135 197.708873 
L 138.649922 197.869507 
L 139.218494 197.63093 
L 139.787066 196.996899 
L 140.355638 195.971259 
L 141.208495 193.733232 
L 142.061353 190.70211 
L 143.198497 185.584649 
L 144.619927 177.841996 
L 147.1785 162.115405 
L 149.168502 150.501251 
L 150.305646 144.882399 
L 151.442789 140.364733 
L 152.295647 137.832843 
L 153.148505 136.113074 
L 153.717077 135.443303 
L 154.285649 135.166543 
L 154.854221 135.288654 
L 155.422793 135.807622 
L 155.991364 136.720838 
L 156.559936 138.014366 
L 157.412794 140.636091 
L 158.265652 144.008588 
L 159.402796 149.512039 
L 160.824225 157.577893 
L 165.372801 184.631461 
L 166.509944 189.883394 
L 167.362802 193.062372 
L 168.21566 195.485958 
L 168.784232 196.64971 
L 169.352804 197.432418 
L 169.921376 197.824103 
L 170.489947 197.81973 
L 171.058519 197.416389 
L 171.627091 196.616591 
L 172.195663 195.43257 
L 173.048521 192.96492 
L 173.901379 189.73024 
L 175.038523 184.385733 
L 176.459952 176.446963 
L 181.577099 146.418831 
L 182.714243 141.556703 
L 183.567101 138.726346 
L 184.419959 136.681735 
L 184.98853 135.786939 
L 185.557102 135.280761 
L 186.125674 135.169682 
L 186.694246 135.457828 
L 187.262818 136.140697 
L 187.83139 137.213923 
L 188.684248 139.524812 
L 189.537106 142.611862 
L 190.674249 147.798113 
L 192.095679 155.601011 
L 194.938538 173.099434 
L 196.644254 182.906758 
L 197.781398 188.465128 
L 198.918542 192.90354 
L 199.771399 195.373013 
L 200.339971 196.566584 
L 200.908543 197.381801 
L 201.477115 197.80664 
L 202.045687 197.833698 
L 202.614259 197.465568 
L 203.182831 196.698475 
L 203.751403 195.546114 
L 204.60426 193.12317 
L 205.457118 189.928684 
L 206.594262 184.628717 
L 208.015692 176.727857 
L 213.132839 146.647222 
L 214.269982 141.737158 
L 215.12284 138.862459 
L 215.975698 136.774136 
L 216.54427 135.847098 
L 217.112842 135.307911 
L 217.681414 135.163473 
L 218.249986 135.418259 
L 218.818558 136.068269 
L 219.387129 137.109487 
L 220.239987 139.374932 
L 221.092845 142.420852 
L 222.229989 147.560912 
L 223.651419 155.323427 
L 226.209992 171.058104 
L 228.199994 182.653326 
L 229.337137 188.252529 
L 230.474281 192.742345 
L 231.327139 195.255926 
L 231.895711 196.480766 
L 232.464283 197.328418 
L 233.032855 197.786374 
L 233.601427 197.846886 
L 234.169998 197.509229 
L 234.73857 196.777656 
L 235.307142 195.657057 
L 236.16 193.279036 
L 237.012858 190.125031 
L 238.150002 184.870078 
L 239.571431 177.007836 
L 244.688578 146.877394 
L 245.825722 141.919832 
L 246.67858 139.0033 
L 247.531438 136.869201 
L 248.10001 135.910005 
L 248.668581 135.337857 
L 249.237153 135.160073 
L 249.805725 135.381477 
L 250.374297 135.998568 
L 250.942869 137.007686 
L 251.795727 139.222238 
L 252.648585 142.232001 
L 253.785728 147.325409 
L 255.207158 155.046846 
L 257.765732 170.76451 
L 259.755733 182.404437 
L 261.177163 189.285554 
L 262.314307 193.517572 
L 263.167164 195.811043 
L 263.735736 196.880744 
L 264.304308 197.566923 
L 264.87288 197.859435 
L 265.441452 197.755886 
L 266.010024 197.253948 
L 266.578596 196.357409 
L 267.147168 195.079955 
L 268.000025 192.480791 
L 268.852883 189.128404 
L 269.990027 183.646947 
L 271.411457 175.599209 
L 275.960032 148.524165 
L 277.097176 143.249492 
L 277.950033 140.050007 
L 278.802891 137.602035 
L 279.371463 136.423688 
L 279.940035 135.62425 
L 280.508607 135.215507 
L 281.077179 135.204697 
L 281.645751 135.588947 
L 282.214323 136.371931 
L 282.782894 137.539681 
L 283.635752 139.984363 
L 284.48861 143.198405 
L 285.625754 148.520063 
L 287.047184 156.439421 
L 292.164331 186.494895 
L 293.301474 191.381734 
L 294.154332 194.233736 
L 295.00719 196.302049 
L 295.575762 197.213439 
L 296.144334 197.736601 
L 296.712906 197.86484 
L 297.281477 197.59385 
L 297.850049 196.927875 
L 298.418621 195.871101 
L 299.271479 193.583561 
L 300.124337 190.517632 
L 301.261481 185.355082 
L 302.68291 177.572868 
L 305.241484 161.830438 
L 307.231485 150.254393 
L 308.368629 144.674958 
L 309.505773 140.210056 
L 310.358631 137.717867 
L 310.927203 136.508199 
L 311.495775 135.67629 
L 312.064346 135.234411 
L 312.632918 135.190146 
L 313.20149 135.543974 
L 313.770062 136.291437 
L 314.338634 137.427474 
L 315.191492 139.827338 
L 316.04435 143.001037 
L 317.181493 148.277911 
L 318.602923 156.158995 
L 323.72007 186.265585 
L 324.857214 191.200136 
L 325.710072 194.096385 
L 326.562929 196.208277 
L 327.131501 197.151866 
L 327.700073 197.708013 
L 328.268645 197.869604 
L 328.837217 197.631986 
L 329.405789 196.998901 
L 329.974361 195.974182 
L 330.827219 193.737465 
L 331.680076 190.707534 
L 332.81722 185.591413 
L 334.23865 177.849939 
L 336.797223 162.123837 
L 338.787225 150.508571 
L 339.924369 144.88856 
L 341.061512 140.369428 
L 341.91437 137.83628 
L 342.767228 136.115154 
L 343.3358 135.444443 
L 343.904372 135.168125 
L 344.472944 135.287877 
L 345.041516 135.805895 
L 345.610088 136.71818 
L 346.178659 138.010812 
L 347.031517 140.631278 
L 347.884375 144.002654 
L 349.021519 149.504881 
L 350.442949 157.569729 
L 354.991524 184.624513 
L 356.128667 189.877719 
L 356.981525 193.057843 
L 357.834383 195.482703 
L 358.402955 196.64736 
L 358.971527 197.431003 
L 359.540099 197.82364 
L 360.108671 197.820226 
L 360.677242 197.41784 
L 361.245814 196.618981 
L 361.814386 195.435867 
L 362.667244 192.969498 
L 363.520102 189.735968 
L 364.657246 184.392734 
L 366.078675 176.455043 
L 371.195822 146.425365 
L 372.332966 141.561855 
L 373.185824 138.730288 
L 374.038682 136.684351 
L 374.607254 135.788628 
L 375.175826 135.281501 
L 375.744397 135.169465 
L 376.312969 135.456652 
L 376.881541 136.138579 
L 377.450113 137.210887 
L 378.302971 139.520474 
L 379.155829 142.606346 
L 380.292972 147.791277 
L 381.714402 155.593025 
L 384.557262 173.091108 
L 386.262977 182.8995 
L 387.400121 188.459049 
L 388.537265 192.898943 
L 389.390123 195.369686 
L 389.958694 196.564157 
L 390.527266 197.380306 
L 391.095838 197.806097 
L 391.66441 197.834116 
L 392.232982 197.46694 
L 392.801554 196.700787 
L 393.370126 195.549336 
L 394.222984 193.12768 
L 395.075841 189.934353 
L 396.212985 184.635671 
L 397.634415 176.735911 
L 398.487273 171.566017 
L 398.487273 171.566017 
" clip-path="url(#pc0fccc2a77)" style="fill: none; stroke: #ff7f0e; stroke-width: 1.5; stroke-linecap: square"/>
   </g>
   <g id="patch_3">
    <path d="M 57.6 307.584 
L 57.6 41.472 
" style="fill: none; stroke: #000000; stroke-width: 0.8; stroke-linejoin: miter; stroke-linecap: square"/>
   </g>
   <g id="patch_4">
    <path d="M 414.72 307.584 
L 414.72 41.472 
" style="fill: none; stroke: #000000; stroke-width: 0.8; stroke-linejoin: miter; stroke-linecap: square"/>
   </g>
   <g id="patch_5">
    <path d="M 57.6 307.584 
L 414.72 307.584 
" style="fill: none; stroke: #000000; stroke-width: 0.8; stroke-linejoin: miter; stroke-linecap: square"/>
   </g>
   <g id="patch_6">
    <path d="M 57.6 41.472 
L 414.72 41.472 
" style="fill: none; stroke: #000000; stroke-width: 0.8; stroke-linejoin: miter; stroke-linecap: square"/>
   </g>
   <g id="text_17">
    <!-- TailOutputTracking_Trial165 -->
    <g transform="translate(153.94875 35.472) scale(0.12 -0.12)">
     <defs>
      <path id="DejaVuSans-61" d="M 2194 1759 
Q 1497 1759 1228 1600 
Q 959 1441 959 1056 
Q 959 750 1161 570 
Q 1363 391 1709 391 
Q 2188 391 2477 730 
Q 2766 1069 2766 1631 
L 2766 1759 
L 2194 1759 
z
M 3341 1997 
L 3341 0 
L 2766 0 
L 2766 531 
Q 2569 213 2275 61 
Q 1981 -91 1556 -91 
Q 1019 -91 701 211 
Q 384 513 384 1019 
Q 384 1609 779 1909 
Q 1175 2209 1959 2209 
L 2766 2209 
L 2766 2266 
Q 2766 2663 2505 2880 
Q 2244 3097 1772 3097 
Q 1472 3097 1187 3025 
Q 903 2953 641 2809 
L 641 3341 
Q 956 3463 1253 3523 
Q 1550 3584 1831 3584 
Q 2591 3584 2966 3190 
Q 3341 2797 3341 1997 
z
" transform="scale(0.015625)"/>
      <path id="DejaVuSans-6c" d="M 603 4863 
L 1178 4863 
L 1178 0 
L 603 0 
L 603 4863 
z
" transform="scale(0.015625)"/>
      <path id="DejaVuSans-72" d="M 2631 2963 
Q 2534 3019 2420 3045 
Q 2306 3072 2169 3072 
Q 1681 3072 1420 2755 
Q 1159 2438 1159 1844 
L 1159 0 
L 581 0 
L 581 3500 
L 1159 3500 
L 1159 2956 
Q 1341 3275 1631 3429 
Q 1922 3584 2338 3584 
Q 2397 3584 2469 3576 
Q 2541 3569 2628 3553 
L 2631 2963 
z
" transform="scale(0.015625)"/>
      <path id="DejaVuSans-63" d="M 3122 3366 
L 3122 2828 
Q 2878 2963 2633 3030 
Q 2388 3097 2138 3097 
Q 1578 3097 1268 2742 
Q 959 2388 959 1747 
Q 959 1106 1268 751 
Q 1578 397 2138 397 
Q 2388 397 2633 464 
Q 2878 531 3122 666 
L 3122 134 
Q 2881 22 2623 -34 
Q 2366 -91 2075 -91 
Q 1284 -91 818 406 
Q 353 903 353 1747 
Q 353 2603 823 3093 
Q 1294 3584 2113 3584 
Q 2378 3584 2631 3529 
Q 2884 3475 3122 3366 
z
" transform="scale(0.015625)"/>
      <path id="DejaVuSans-6b" d="M 581 4863 
L 1159 4863 
L 1159 1991 
L 2875 3500 
L 3609 3500 
L 1753 1863 
L 3688 0 
L 2938 0 
L 1159 1709 
L 1159 0 
L 581 0 
L 581 4863 
z
" transform="scale(0.015625)"/>
      <path id="DejaVuSans-6e" d="M 3513 2113 
L 3513 0 
L 2938 0 
L 2938 2094 
Q 2938 2591 2744 2837 
Q 2550 3084 2163 3084 
Q 1697 3084 1428 2787 
Q 1159 2491 1159 1978 
L 1159 0 
L 581 0 
L 581 3500 
L 1159 3500 
L 1159 2956 
Q 1366 3272 1645 3428 
Q 1925 3584 2291 3584 
Q 2894 3584 3203 3211 
Q 3513 2838 3513 2113 
z
" transform="scale(0.015625)"/>
      <path id="DejaVuSans-67" d="M 2906 1791 
Q 2906 2416 2648 2759 
Q 2391 3103 1925 3103 
Q 1463 3103 1205 2759 
Q 947 2416 947 1791 
Q 947 1169 1205 825 
Q 1463 481 1925 481 
Q 2391 481 2648 825 
Q 2906 1169 2906 1791 
z
M 3481 434 
Q 3481 -459 3084 -895 
Q 2688 -1331 1869 -1331 
Q 1566 -1331 1297 -1286 
Q 1028 -1241 775 -1147 
L 775 -588 
Q 1028 -725 1275 -790 
Q 1522 -856 1778 -856 
Q 2344 -856 2625 -561 
Q 2906 -266 2906 331 
L 2906 616 
Q 2728 306 2450 153 
Q 2172 0 1784 0 
Q 1141 0 747 490 
Q 353 981 353 1791 
Q 353 2603 747 3093 
Q 1141 3584 1784 3584 
Q 2172 3584 2450 3431 
Q 2728 3278 2906 2969 
L 2906 3500 
L 3481 3500 
L 3481 434 
z
" transform="scale(0.015625)"/>
      <path id="DejaVuSans-5f" d="M 3263 -1063 
L 3263 -1509 
L -63 -1509 
L -63 -1063 
L 3263 -1063 
z
" transform="scale(0.015625)"/>
      <path id="DejaVuSans-35" d="M 691 4666 
L 3169 4666 
L 3169 4134 
L 1269 4134 
L 1269 2991 
Q 1406 3038 1543 3061 
Q 1681 3084 1819 3084 
Q 2600 3084 3056 2656 
Q 3513 2228 3513 1497 
Q 3513 744 3044 326 
Q 2575 -91 1722 -91 
Q 1428 -91 1123 -41 
Q 819 9 494 109 
L 494 744 
Q 775 591 1075 516 
Q 1375 441 1709 441 
Q 2250 441 2565 725 
Q 2881 1009 2881 1497 
Q 2881 1984 2565 2268 
Q 2250 2553 1709 2553 
Q 1456 2553 1204 2497 
Q 953 2441 691 2322 
L 691 4666 
z
" transform="scale(0.015625)"/>
     </defs>
     <use xlink:href="#DejaVuSans-54"/>
     <use xlink:href="#DejaVuSans-61" x="44.583984"/>
     <use xlink:href="#DejaVuSans-69" x="105.863281"/>
     <use xlink:href="#DejaVuSans-6c" x="133.646484"/>
     <use xlink:href="#DejaVuSans-4f" x="161.429688"/>
     <use xlink:href="#DejaVuSans-75" x="240.140625"/>
     <use xlink:href="#DejaVuSans-74" x="303.519531"/>
     <use xlink:href="#DejaVuSans-70" x="342.728516"/>
     <use xlink:href="#DejaVuSans-75" x="406.205078"/>
     <use xlink:href="#DejaVuSans-74" x="469.583984"/>
     <use xlink:href="#DejaVuSans-54" x="508.792969"/>
     <use xlink:href="#DejaVuSans-72" x="555.126953"/>
     <use xlink:href="#DejaVuSans-61" x="596.240234"/>
     <use xlink:href="#DejaVuSans-63" x="657.519531"/>
     <use xlink:href="#DejaVuSans-6b" x="712.5"/>
     <use xlink:href="#DejaVuSans-69" x="770.410156"/>
     <use xlink:href="#DejaVuSans-6e" x="798.193359"/>
     <use xlink:href="#DejaVuSans-67" x="861.572266"/>
     <use xlink:href="#DejaVuSans-5f" x="925.048828"/>
     <use xlink:href="#DejaVuSans-54" x="975.048828"/>
     <use xlink:href="#DejaVuSans-72" x="1021.382812"/>
     <use xlink:href="#DejaVuSans-69" x="1062.496094"/>
     <use xlink:href="#DejaVuSans-61" x="1090.279297"/>
     <use xlink:href="#DejaVuSans-6c" x="1151.558594"/>
     <use xlink:href="#DejaVuSans-31" x="1179.341797"/>
     <use xlink:href="#DejaVuSans-36" x="1242.964844"/>
     <use xlink:href="#DejaVuSans-35" x="1306.587891"/>
    </g>
   </g>
   <g id="legend_1">
    <g id="patch_7">
     <path d="M 64.6 78.82825 
L 156.49375 78.82825 
Q 158.49375 78.82825 158.49375 76.82825 
L 158.49375 48.472 
Q 158.49375 46.472 156.49375 46.472 
L 64.6 46.472 
Q 62.6 46.472 62.6 48.472 
L 62.6 76.82825 
Q 62.6 78.82825 64.6 78.82825 
z
" style="fill: #ffffff; opacity: 0.8; stroke: #cccccc; stroke-linejoin: miter"/>
    </g>
    <g id="line2d_17">
     <path d="M 66.6 54.570437 
L 76.6 54.570437 
L 86.6 54.570437 
" style="fill: none; stroke: #1f77b4; stroke-width: 1.5; stroke-linecap: square"/>
    </g>
    <g id="text_18">
     <!-- Output 1 -->
     <g transform="translate(94.6 58.070437) scale(0.1 -0.1)">
      <defs>
       <path id="DejaVuSans-20" transform="scale(0.015625)"/>
      </defs>
      <use xlink:href="#DejaVuSans-4f"/>
      <use xlink:href="#DejaVuSans-75" x="78.710938"/>
      <use xlink:href="#DejaVuSans-74" x="142.089844"/>
      <use xlink:href="#DejaVuSans-70" x="181.298828"/>
      <use xlink:href="#DejaVuSans-75" x="244.775391"/>
      <use xlink:href="#DejaVuSans-74" x="308.154297"/>
      <use xlink:href="#DejaVuSans-20" x="347.363281"/>
      <use xlink:href="#DejaVuSans-31" x="379.150391"/>
     </g>
    </g>
    <g id="line2d_18">
     <path d="M 66.6 69.248562 
L 76.6 69.248562 
L 86.6 69.248562 
" style="fill: none; stroke: #ff7f0e; stroke-width: 1.5; stroke-linecap: square"/>
    </g>
    <g id="text_19">
     <!-- Reference 1 -->
     <g transform="translate(94.6 72.748562) scale(0.1 -0.1)">
      <defs>
       <path id="DejaVuSans-52" d="M 2841 2188 
Q 3044 2119 3236 1894 
Q 3428 1669 3622 1275 
L 4263 0 
L 3584 0 
L 2988 1197 
Q 2756 1666 2539 1819 
Q 2322 1972 1947 1972 
L 1259 1972 
L 1259 0 
L 628 0 
L 628 4666 
L 2053 4666 
Q 2853 4666 3247 4331 
Q 3641 3997 3641 3322 
Q 3641 2881 3436 2590 
Q 3231 2300 2841 2188 
z
M 1259 4147 
L 1259 2491 
L 2053 2491 
Q 2509 2491 2742 2702 
Q 2975 2913 2975 3322 
Q 2975 3731 2742 3939 
Q 2509 4147 2053 4147 
L 1259 4147 
z
" transform="scale(0.015625)"/>
       <path id="DejaVuSans-66" d="M 2375 4863 
L 2375 4384 
L 1825 4384 
Q 1516 4384 1395 4259 
Q 1275 4134 1275 3809 
L 1275 3500 
L 2222 3500 
L 2222 3053 
L 1275 3053 
L 1275 0 
L 697 0 
L 697 3053 
L 147 3053 
L 147 3500 
L 697 3500 
L 697 3744 
Q 697 4328 969 4595 
Q 1241 4863 1831 4863 
L 2375 4863 
z
" transform="scale(0.015625)"/>
      </defs>
      <use xlink:href="#DejaVuSans-52"/>
      <use xlink:href="#DejaVuSans-65" x="64.982422"/>
      <use xlink:href="#DejaVuSans-66" x="126.505859"/>
      <use xlink:href="#DejaVuSans-65" x="161.710938"/>
      <use xlink:href="#DejaVuSans-72" x="223.234375"/>
      <use xlink:href="#DejaVuSans-65" x="262.097656"/>
      <use xlink:href="#DejaVuSans-6e" x="323.621094"/>
      <use xlink:href="#DejaVuSans-63" x="387"/>
      <use xlink:href="#DejaVuSans-65" x="441.980469"/>
      <use xlink:href="#DejaVuSans-20" x="503.503906"/>
      <use xlink:href="#DejaVuSans-31" x="535.291016"/>
     </g>
    </g>
   </g>
  </g>
 </g>
 <defs>
  <clipPath id="pc0fccc2a77">
   <rect x="57.6" y="41.472" width="357.12" height="266.112"/>
  </clipPath>
 </defs>
</svg>
